<?xml version="1.0" encoding="UTF-8" standalone="no"?>
<!-- Created with Inkscape (http://www.inkscape.org/) -->

<svg
   version="1.1"
   id="svg1"
   width="190.12889"
   height="203.19737"
   viewBox="0 0 190.12889 203.19738"
   xmlns="http://www.w3.org/2000/svg"
   xmlns:svg="http://www.w3.org/2000/svg">
  <defs
     id="defs1" />
  <path
     d="m 158.791,79.357526 c 0.36643,0 0.56654,122.729994 0.20117,123.382814 -0.21061,0.37634 -1.60118,0.45703 -7.86523,0.45703 -4.18592,0 -7.70689,-0.0975 -7.82422,-0.21484 -0.11733,-0.11733 -0.21289,-21.76748 -0.21289,-48.11329 V 106.9669 l 2.41211,-4.28516 c 1.32702,-2.35687 2.54617,-4.501624 2.70898,-4.765624 0.4048,-0.65638 4.24956,-7.61456 5.83398,-10.55859 0.71039,-1.32 1.40214,-2.54471 1.53711,-2.72071 0.23048,-0.30054 1.41094,-2.42028 2.45118,-4.40039 0.25427,-0.484 0.59559,-0.8789 0.75781,-0.8789 z"
     style="fill:#d1ae5d"
     id="path4" />
  <path
     d="m 145.791,1.0007012e-4 c 5.81836,0.002 10.90283,0.0930999999 11.29883,0.19921899988 l 0.71875,0.191406 V 21.879007 43.367286 l -0.7461,1.11524 c -0.41068,0.61285 -1.23017,2.19367 -1.82031,3.51367 -0.59013,1.32 -1.26102,2.62841 -1.49219,2.90625 -0.23116,0.27784 -1.22863,2.07784 -2.21484,4 -0.98622,1.92216 -2.67797,5.1988 -3.75977,7.2832 -1.0818,2.0844 -2.43378,4.7142 -3.00586,5.8418 -0.57208,1.1276 -1.1854,2.04883 -1.36132,2.04883 -0.21035,0 -0.31836,-8.38139 -0.31836,-24.48047 0,-14.413383 -0.12032,-24.478518 -0.29102,-24.478518 -0.32538,0 -0.37411,0.130974 -3.91797,10.558594 -1.40563,4.136 -3.31963,9.752464 -4.2539,12.480464 -4.4795,13.07969 -6.63168,19.42184 -8.03321,23.67969 -0.84002,2.552 -1.63415,4.92925 -1.76562,5.28125 -0.13147,0.352 -0.48546,1.28808 -0.78711,2.08008 -0.30165,0.792 -1.61077,4.60652 -2.90821,8.47852 -1.29743,3.872 -3.27761,9.70493 -4.40039,12.96093 -2.19046,6.352224 -9.82613,28.637884 -12.33398,36.000004 l -1.52539,4.48047 -8.150392,0.084 -8.15235,0.0859 -0.69531,-1.68554 c -0.38241,-0.9269 -0.9025,-2.333 -1.15625,-3.125 -0.25374,-0.792 -0.99682,-2.88063 -1.65234,-4.64063 -1.4433,-3.87513 -2.96141,-8.03109 -3.33008,-9.11914 -0.14909,-0.44 -0.94788,-2.67294 -1.77539,-4.96094 -0.82751,-2.288 -2.1272,-5.888 -2.88867,-8 -0.76147,-2.112 -1.76631,-4.84807 -2.23242,-6.080074 -0.46611,-1.232 -1.61591,-4.39907 -2.55469,-7.03907 -3.81147,-10.71852 -4.65902,-13.07166 -5.39649,-14.97265 -0.42412,-1.09327 -0.99295,-2.63574 -1.26367,-3.42774 -0.27073,-0.792 -0.87231,-2.44768 -1.33594,-3.67969 -0.46362,-1.232 -1.03934,-2.81553 -1.28125,-3.51953 -0.24189,-0.704 -1.04418,-2.93693 -1.78125,-4.96093 -0.73707,-2.024 -1.59105,-4.3993 -1.89843,-5.2793 -1.35576,-3.88143 -5.81014,-16.06045 -6.08594,-16.64063 -0.16733,-0.352 -0.79831,-2.079839 -1.40234,-3.839839 -2.15002,-6.26465 -3.61236,-10.253294 -4.10352,-11.189454 -0.4952,-0.943849 -0.49997,-0.933224 -0.71289,1.759766 -0.11783,1.49034 -0.13543,10.414078 -0.0391,19.830077 0.0964,9.416 0.2365,28.71091 0.31054,42.87891 0.074,14.168004 0.21528,37.425644 0.31446,51.681644 0.20565,29.56153 0.19911,61.32443 -0.0137,61.67969 -0.0791,0.132 -3.51001,0.24023 -7.62305,0.24023 -6.62893,0 -7.54032,-0.0637 -8.02539,-0.54883 -0.51482,-0.51482 -0.53484,-6.51293 -0.34766,-101.33594 0.15955,-80.82783 0.27842,-100.84246793 0.60352,-101.04882793 0.22297,-0.14153 5.38784,-0.259029 11.47656,-0.261719 10.15645,-0.005 11.10884,0.04089 11.53516,0.554688 0.58048,0.69955003 0.83548,1.35935003 5.41796,13.99999993 1.08466,2.992 2.32746,6.375531 2.76172,7.519531 0.85462,2.25137 1.69171,4.590048 2.63672,7.361328 0.33009,0.968 1.64213,4.568 2.91406,8 1.27194,3.431996 2.57088,6.959846 2.88672,7.839846 0.31585,0.88 1.1057,3.03883 1.75586,4.79883 1.37554,3.72364 3.22212,8.78083 5.02344,13.75976 1.96801,5.43965 2.37463,6.55158 3.2793,8.96094 0.4626,1.232 1.03329,2.81553 1.26953,3.51953 0.45411,1.35323 2.44166,6.80591 3.84961,10.56055 1.39001,3.70677 1.76846,4.74034 2.22656,6.08008 0.24072,0.704 1.04558,2.93498 1.78711,4.95898 0.74154,2.024 1.60364,4.401254 1.91602,5.281254 2.17922,6.13911 3.26347,8.99807 3.50585,9.24219 0.31989,0.32218 1.01567,-1.15396 2.09766,-4.44336 0.40524,-1.232 1.3405,-3.89592 2.07617,-5.91992 0.73567,-2.024 1.815952,-5.118914 2.402352,-6.878914 0.58639,-1.76 2.0284,-5.86509 3.20312,-9.12109 1.17472,-3.256 3.14066,-8.80032 4.36914,-12.32032 1.22848,-3.52 2.63767,-7.55098 3.13086,-8.95898 0.49318,-1.408 1.42367,-4.07192 2.06836,-5.91992 2.26318,-6.48745 2.98325,-8.53908 5.44727,-15.51953 1.36678,-3.872 2.8767,-8.193566 3.35547,-9.601566 0.47877,-1.408 1.75748,-5.044078 2.84179,-8.080078 1.0843,-3.036 2.83779,-8.003063 3.89649,-11.039063 1.0587,-3.036 2.05236,-5.8081559 2.20898,-6.1601559 0.15661,-0.352 0.81167,-2.224156 1.45508,-4.160156 0.64342,-1.936 1.4045,-3.69992203 1.69141,-3.91992203 0.39336,-0.30163 3.1244,-0.399785 11.10156,-0.396484999883 z M 167.09764,28.796975 h 11.51562 11.51563 v 75.646485 c 0,68.68385 -0.0463,75.66349 -0.50586,75.83985 -0.6129,0.23519 -15.16008,0.21164 -15.75195,-0.0254 -0.34257,-0.13718 -0.4116,-11.75797 -0.38086,-64.21485 0.0433,-73.914654 0.0758,-66.447264 -0.29102,-66.447264 -0.15941,0 -0.73591,0.9 -1.28125,2 -0.54533,1.1 -1.40995,2.72156 -1.92187,3.60156 -0.51193,0.88 -1.13855,2.03059 -1.39258,2.55859 -0.25402,0.528 -1.15656,2.18564 -2.00391,3.68164 -0.84736,1.496 -2.01817,3.65483 -2.60351,4.79883 -0.58534,1.144 -1.20127,2.29655 -1.36914,2.56055 -0.16786,0.264 -1.50216,2.69862 -2.9629,5.41016 -1.46073,2.71154 -3.14017,5.80644 -3.73242,6.8789 -0.59225,1.07246 -1.49075,2.74294 -1.99804,3.71094 -2.06397,3.93844 -5.30953,9.95192 -6.32422,11.71875 -0.59401,1.03431 -1.49396,2.67262 -2,3.640624 -0.50604,0.968 -1.54151,2.91232 -2.30078,4.32032 -0.75927,1.408 -3.5147,6.51937 -6.12305,11.35937 -2.60836,4.84 -4.86553,8.9571 -5.01563,9.14844 -0.1501,0.19134 -0.82733,1.41604 -1.50586,2.7207 -0.67852,1.30466 -3.10733,5.82678 -5.39648,10.05078 -2.28915,4.224 -7.5552,13.94557 -11.70312,21.60157 -10.12495,18.68804 -10.32684,19.04453 -10.74805,19.00781 -0.20189,-0.0176 -4.028582,-0.0537 -8.503912,-0.0801 l -8.13672,-0.0488 -1.98437,-3.59961 c -1.0912,-1.98 -2.5596,-4.68 -3.26172,-6 -3.99061,-7.50239 -11.11024,-20.73987 -12.56445,-23.35937 -0.92821,-1.672 -4.13055,-7.5771 -7.11524,-13.1211 -2.98469,-5.544 -5.9716,-11.08831 -6.63672,-12.32031 -0.66512,-1.232 -2.6889,-4.98281 -4.49804,-8.33594 -1.80915,-3.35313 -3.31889,-6.30567 -3.35547,-6.56054 -0.2283,-1.59089 0.0585,-30.382824 0.30273,-30.382824 0.16175,0 0.97612,1.26079 1.8086,2.80079 0.83248,1.54 1.942,3.59059 2.46484,4.55859 0.52285,0.968 1.34626,2.48133 1.83008,3.36133 0.48382,0.88 1.38213,2.53569 1.99804,3.67969 2.23945,4.15951 5.85214,10.83745 8.6543,16.000004 1.57626,2.904 3.08736,5.71223 3.35938,6.24023 0.27202,0.528 1.78725,3.33623 3.36523,6.24023 1.57798,2.904 3.33014,6.14322 3.89453,7.19922 0.56438,1.056 4.60377,8.54463 8.97656,16.64063 4.37279,8.09601 8.6079,15.97655 9.41211,17.51367 0.8042,1.53712 1.62876,2.7979 1.83204,2.80078 0.41067,0.006 1.18717,-1.25281 3.55468,-5.75586 0.87906,-1.672 2.352452,-4.40808 3.273442,-6.08008 0.92099,-1.67201 3.15196,-5.77514 4.95703,-9.11914 1.80508,-3.344 3.78985,-7.01615 4.41211,-8.16015 0.62226,-1.144 4.18356,-7.69655 7.91211,-14.56055 12.13833,-22.345824 14.42855,-26.551794 14.72656,-27.039064 0.16146,-0.264 1.28812,-2.35263 2.50391,-4.64063 3.34988,-6.30412 4.25548,-7.97 4.52344,-8.32031 0.13463,-0.176 1.21703,-2.19052 2.40429,-4.47852 1.18727,-2.288 2.26966,-4.30446 2.40625,-4.48046 0.13659,-0.176 1.0742,-1.90385 2.08203,-3.83985 1.00784,-1.936 1.99257,-3.72025 2.18946,-3.96484 0.19688,-0.2446 0.73219,-1.18068 1.18945,-2.08008 1.17544,-2.31207 2.69405,-5.15778 3.94727,-7.39648 1.15334,-2.06031 2.00367,-3.64393 4.60547,-8.58399 0.91121,-1.73012 1.92592,-3.53012 2.25585,-4 0.32993,-0.46987 0.90911,-1.502921 1.28711,-2.294921 0.37801,-0.792 1.25579,-2.447687 1.94922,-3.679687 0.69343,-1.232 1.48484,-2.70925 1.75977,-3.28125 z"
     style="fill:#d1ae5d"
     id="path3" />
  <path
     d="m 11.451148,28.660257 c 5.78501,0.0738 10.614,0.134115 10.73047,0.134765 0.11647,6.5e-4 1.51961,2.425452 3.11914,5.388672 l 2.90821,5.388672 v 15.41211 c 0,8.47677 -0.10852,15.41211 -0.24219,15.41211 -0.30252,0 -0.66739,-0.58242 -2.3418,-3.73633 -4.77989,-9.00338 -8.391,-15.46289 -8.64258,-15.46289 -0.17668,0 -0.29296,25.61549 -0.29296,64.445314 0,58.47091 -0.0466,64.4644 -0.50586,64.64063 -0.60324,0.23148 -15.1574096,0.21524 -15.73437964,-0.0176 v -0.002 c -0.62554,-0.25241 -0.58465,-151.328277 0.041,-151.568367 0.24299,-0.0933 5.17592004,-0.108936 10.96092964,-0.03516 z"
     style="fill:#d1ae5d"
     id="path2" />
</svg>
