<?xml version="1.0" encoding="UTF-8" standalone="no"?>
<!-- Created with Inkscape (http://www.inkscape.org/) -->

<svg
   version="1.1"
   id="svg1"
   width="584.5282"
   height="585.00629"
   viewBox="0 0 584.5282 585.00631"
   xmlns="http://www.w3.org/2000/svg"
   xmlns:svg="http://www.w3.org/2000/svg">
  <defs
     id="defs1" />
  <g
     id="g1"
     transform="translate(-96.043581,-193.61453)">
    <path
       style="fill:#d1ae5d"
       d="m 370.41566,778.46457 c -0.24995,-0.13985 -1.42775,-0.24391 -2.61735,-0.23123 -1.18959,0.0127 -2.95489,-0.0644 -3.92289,-0.17133 -0.968,-0.10691 -2.624,-0.26053 -3.68,-0.34138 -3.97477,-0.30432 -7.88805,-0.76386 -13.35977,-1.56886 -0.57213,-0.0842 -1.61623,-0.21711 -2.32023,-0.29542 -0.704,-0.0783 -1.64,-0.23156 -2.08,-0.34056 -0.44,-0.10899 -1.16,-0.24212 -1.6,-0.29584 -0.44,-0.0537 -1.304,-0.19116 -1.92,-0.30542 -0.616,-0.11425 -1.68266,-0.27333 -2.37036,-0.35351 -0.6877,-0.0802 -1.6957,-0.28447 -2.24,-0.45398 -0.5443,-0.16951 -1.49364,-0.37176 -2.10964,-0.44943 -2.05382,-0.25896 -12.29121,-2.44823 -14.4,-3.07943 -1.144,-0.34243 -4.08278,-1.1443 -6.53061,-1.78194 -2.44784,-0.63764 -5.03984,-1.34928 -5.76,-1.58143 -0.72017,-0.23214 -3.32539,-1.03566 -5.78939,-1.78559 -12.99306,-3.9545 -28.71478,-10.3625 -42.72,-17.41221 -8.15551,-4.10517 -21.47731,-11.62187 -21.94845,-12.3842 -0.39644,-0.64144 0.54248,-1.0514 2.67247,-1.16686 4.57091,-0.24777 4.59639,-0.24181 8.54002,1.99706 2.03043,1.15271 3.81723,2.09584 3.97067,2.09584 0.15344,0 0.6498,0.29169 1.10303,0.6482 2.33911,1.83995 22.46587,11.27102 31.90226,14.94888 13.01876,5.0741 28.46462,9.83195 41.28,12.71563 2.728,0.61385 5.608,1.26389 6.4,1.44454 0.792,0.18065 1.872,0.38161 2.4,0.44657 0.528,0.065 1.32,0.21019 1.76,0.32272 0.44,0.11252 1.232,0.25481 1.76,0.3162 0.528,0.0614 1.536,0.26533 2.24,0.45322 0.704,0.18789 2.072,0.43406 3.04,0.54704 2.73126,0.31877 5.36635,0.68149 7.2,0.99109 1.2477,0.21066 2.84729,0.42893 4.64,0.63313 0.792,0.0902 2.016,0.23482 2.72,0.32135 3.35993,0.41297 10.52802,0.95988 16.16,1.23298 3.60204,0.17467 27.89512,0.19248 31.36,0.023 6.52369,-0.31911 11.42741,-0.71187 15.84,-1.26869 0.704,-0.0888 1.856,-0.23327 2.56,-0.32097 0.704,-0.0877 1.928,-0.24673 2.72,-0.35342 0.792,-0.10668 1.86179,-0.18593 2.37731,-0.1761 0.51553,0.01 1.10644,-0.12249 1.31314,-0.29404 0.20671,-0.17155 0.72092,-0.30811 1.14269,-0.30347 0.42177,0.005 1.19886,-0.0545 1.72686,-0.13144 0.528,-0.0769 1.79818,-0.23204 2.82264,-0.34468 1.02445,-0.11263 2.19764,-0.33216 2.60709,-0.48783 0.40945,-0.15568 0.80678,-0.22073 0.88294,-0.14456 0.0762,0.0762 0.86576,-0.0775 1.75465,-0.34147 0.88889,-0.26397 2.24538,-0.53931 3.01442,-0.61186 1.56743,-0.14786 1.83623,-0.20096 5.87826,-1.16116 1.584,-0.37629 3.168,-0.74026 3.52,-0.80883 9.00175,-1.75356 26.73071,-7.09748 38.07999,-11.47819 1.232,-0.47554 2.6,-0.98133 3.04,-1.12398 0.44,-0.14265 3.032,-1.19771 5.76,-2.34459 11.34854,-4.771 22.02664,-10.07202 32.883,-16.32435 2.09138,-1.20446 2.52663,-1.27149 6.96879,-1.07323 3.56931,0.15931 3.58334,0.80106 0.0634,2.89867 -10.773,6.41987 -24.95797,13.67255 -35.11518,17.95415 -2.376,1.00156 -4.968,2.11121 -5.76,2.46589 -9.94642,4.45431 -35.66684,12.34964 -47.19999,14.48888 -1.584,0.29381 -3.312,0.66416 -3.84,0.823 -0.528,0.15884 -3.912,0.78846 -7.52,1.39915 -3.608,0.61069 -6.92,1.1966 -7.36,1.30202 -0.44,0.10541 -1.376,0.25562 -2.08,0.33379 -1.48634,0.16503 -2.9396,0.3441 -4.96,0.61116 -4.0087,0.52989 -5.63417,0.69732 -12.32,1.26904 -4.04434,0.34584 -6.9286,0.40933 -24.26265,0.53404 -9.82446,0.0707 -18.06716,0.0141 -18.31711,-0.12576 z m -97.81476,-61.5269 c -0.12777,-0.12778 -0.96806,-0.34862 -1.86731,-0.49078 -4.35656,-0.68868 -7.56237,-3.89024 -8.94797,-8.93611 -0.50278,-1.83093 -0.47976,-9.54121 0.0332,-11.1248 1.16704,-3.60279 3.33898,-6.51875 5.78912,-7.77224 3.76227,-1.92478 9.72768,-1.83637 13.25424,0.19644 1.56429,0.9017 3.39692,2.86404 4.23456,4.53425 2.32659,4.63914 2.41102,12.72803 0.17883,17.13304 -1.64879,3.25373 -4.41246,5.36633 -7.92001,6.0542 -2.51822,0.49385 -4.49778,0.66288 -4.75467,0.406 z m 4.54146,-7.05694 c 1.26035,-1.06051 1.74177,-2.00093 2.35578,-4.60188 0.68762,-2.91276 0.34242,-6.86933 -0.79226,-9.08055 -1.64463,-3.205 -5.37329,-3.9297 -8.0016,-1.55518 -1.61832,1.46206 -2.28012,3.69064 -2.26865,7.63966 0.011,3.77892 0.64903,5.76857 2.33979,7.29607 1.17027,1.05727 1.41094,1.14 3.31637,1.14 1.74955,0 2.20238,-0.12441 3.05057,-0.83812 z m 146.89306,6.56249 c -1.75917,-0.76209 -2.47481,-1.80751 -3.86279,-5.64282 -0.60984,-1.68514 -1.45051,-3.34167 -1.98737,-3.91611 -0.85826,-0.91834 -1.07083,-0.9882 -2.74014,-0.9005 l -1.8097,0.0951 -0.0929,2.26277 c -0.0888,2.16334 -0.0565,2.27936 0.73506,2.64 0.45536,0.20748 1.02174,0.37723 1.25863,0.37723 0.57358,0 0.81918,0.71954 0.81918,2.4 0,2.51402 0.29048,2.4 -6.11424,2.4 h -5.72576 l 0.007,-2.32 c 0.007,-2.29926 0.0162,-2.32429 1.04,-2.8 l 1.03308,-0.48 0.0855,-8.2806 c 0.0894,-8.65681 0.0366,-9.02863 -1.30872,-9.22019 -0.63761,-0.0908 -0.7047,-0.30976 -0.79022,-2.57921 l -0.0935,-2.48 7.45346,-0.0504 c 8.43937,-0.0571 7.69866,-0.083 9.32492,0.32683 2.26904,0.57188 4.07877,1.9649 5.04533,3.88358 1.37458,2.72864 1.72913,4.26565 1.31024,5.68 -0.19547,0.66 -0.44038,1.60844 -0.54425,2.10765 -0.10387,0.4992 -0.81337,1.5792 -1.57667,2.4 l -1.38783,1.49235 0.71196,1.12 c 0.39158,0.616 0.89578,1.696 1.12046,2.4 0.6267,1.96369 1.77562,3.28827 3.23019,3.72407 l 1.28407,0.38471 -0.0925,2.39126 -0.0925,2.39125 -1.44,0.4295 c -1.91398,0.57086 -3.0677,0.51404 -4.8,-0.23642 z m -4.94874,-17.12117 c 0.67864,-0.44467 0.78874,-0.76028 0.78874,-2.26104 0,-0.95933 -0.14827,-2.02128 -0.32949,-2.35988 -0.4908,-0.91708 -2.01623,-1.58228 -3.62845,-1.58228 -2.42664,0 -2.44206,0.0211 -2.44206,3.3409 0,1.62384 0.096,3.04843 0.21333,3.16577 0.4523,0.45229 4.6004,0.21909 5.39793,-0.30347 z m 61.81677,17.59817 c -0.13776,-0.13776 -1.14542,-0.34654 -2.23925,-0.46395 -2.58175,-0.27712 -4.55535,-0.82969 -5.17438,-1.44873 -0.38789,-0.38789 -0.4944,-1.27822 -0.4944,-4.13266 0,-2.00104 0.108,-3.70015 0.24,-3.7758 0.132,-0.0756 1.284,-0.23686 2.56,-0.35826 l 2.32,-0.22072 v 1.32041 c 0,1.74733 0.41726,2.44493 1.67754,2.80456 1.43608,0.4098 3.77577,0.274 4.64319,-0.2695 1.09109,-0.68364 1.52477,-2.30664 0.8795,-3.29145 -0.58876,-0.89856 -1.60641,-1.4189 -4.80024,-2.45441 -1.23199,-0.39944 -2.97931,-1.19633 -3.88291,-1.77086 -2.92782,-1.86157 -4.13812,-5.67725 -3.0387,-9.58 0.47438,-1.68398 2.67552,-4.04984 4.7154,-5.06826 2.66786,-1.33195 7.45897,-1.16182 11.08621,0.39368 l 1.52,0.65184 v 3.65713 c 0,4.12104 0.0471,4.04561 -2.52501,4.04561 -1.83735,0 -2.37695,-0.40022 -2.86482,-2.12482 -0.32179,-1.13752 -0.52458,-1.35292 -1.43442,-1.52361 -1.72821,-0.32421 -3.06343,0.0977 -3.60141,1.13806 -0.42781,0.8273 -0.42339,1.03886 0.0422,2.02005 0.53074,1.11846 1.96635,1.83304 6.22344,3.09774 2.14948,0.63857 4.2243,2.16336 4.94292,3.63258 0.74877,1.53086 1.04536,5.80385 0.53453,7.70094 -0.49816,1.85001 -2.02079,3.73744 -3.686,4.56908 -2.00264,1.00017 -7.12243,1.97233 -7.64341,1.45135 z m 88.41196,-0.10638 c -0.264,-0.17885 -0.8706,-0.32739 -1.34799,-0.33009 -0.4774,-0.003 -1.68133,-0.3092 -2.67539,-0.68113 -2.4518,-0.91734 -4.67235,-3.13486 -5.95015,-5.94203 -0.91527,-2.01075 -1.00491,-2.5203 -1.14371,-6.50174 -0.23701,-6.79865 0.63821,-9.62653 3.97222,-12.83452 2.35922,-2.27003 3.91762,-2.88639 7.80578,-3.08724 8.881,-0.45875 13.39972,4.42662 13.41451,14.50299 0.006,4.0391 -0.44101,6.49585 -1.59437,8.76386 -1.99466,3.9224 -4.66559,5.46568 -10.8809,6.28708 -0.616,0.0814 -1.336,0.002 -1.6,-0.17718 z m 3.56969,-6.37305 c 1.24728,-0.47421 2.76886,-2.45205 3.30487,-4.29585 0.67716,-2.32936 0.46088,-7.21839 -0.40638,-9.18609 -2.45737,-5.57544 -8.5362,-4.94615 -10.36444,1.07295 -1.21391,3.99652 -0.50504,8.62039 1.76029,11.4822 1.02173,1.29077 3.6328,1.71489 5.70566,0.92679 z m -390.31251,5.62216 c -0.31384,-0.17568 -0.45563,-0.82775 -0.45227,-2.08 0.006,-2.09122 0.16777,-2.44476 1.2751,-2.78013 1.62293,-0.49154 1.6,-0.36078 1.6,-9.12397 0,-8.82451 0.0278,-8.67407 -1.67512,-9.08075 -1.02467,-0.24471 -1.28819,-0.99524 -1.14481,-3.26046 l 0.0999,-1.57879 10.64,-0.0843 10.64,-0.0843 v 3.94032 c 0,2.63802 -0.12691,4.06722 -0.384,4.32431 -0.56595,0.56595 -3.62538,0.4889 -4.22057,-0.10629 -0.26966,-0.26965 -0.58422,-0.991 -0.69903,-1.60298 -0.25029,-1.33415 -0.708,-1.49733 -3.82309,-1.36302 l -2.23331,0.0963 -0.0914,2.91628 -0.0914,2.91627 1.21143,0.2002 c 0.66629,0.11012 2.22663,0.20179 3.46743,0.20373 1.32342,0.002 2.41474,0.16226 2.64,0.38752 0.2112,0.2112 0.384,1.2192 0.384,2.24 0,2.81439 -0.46071,3.136 -4.49245,3.136 h -3.21246 l 0.0925,2.79535 0.0924,2.79534 1.13087,0.18305 c 0.62198,0.10067 1.30598,0.29126 1.52,0.42354 0.56165,0.34712 0.52516,4.33061 -0.0417,4.54812 -0.72278,0.27736 -11.74338,0.31223 -12.23204,0.0387 z m 39.19118,-0.28306 c -0.15859,-0.29643 -0.28835,-1.25815 -0.28835,-2.13714 0,-1.68653 0.5492,-2.6039 1.55886,-2.6039 1.24857,0 1.32114,-0.49222 1.32114,-8.96 0,-8.46778 -0.0726,-8.96 -1.32114,-8.96 -0.99886,0 -1.55886,-0.91845 -1.55886,-2.55669 0,-2.70224 -0.33211,-2.56331 6.1277,-2.56331 h 5.73922 l -0.0935,2.4665 c -0.0884,2.33408 -0.13641,2.4766 -0.89346,2.65443 l -0.8,0.18792 v 8.78558 8.78557 l 2.87439,0.0935 c 3.17397,0.1033 3.68561,-0.15933 3.68561,-1.89184 0,-1.41294 0.74706,-1.8817 2.99886,-1.8817 1.12355,0 2.16068,0.16754 2.37714,0.384 0.55329,0.55329 0.53472,8.21825 -0.0204,8.43128 -0.22243,0.0853 -5.13267,0.18883 -10.91165,0.22996 -9.56968,0.0681 -10.53296,0.0267 -10.79558,-0.4642 z m 152.83165,0.38555 -10.56,-0.16659 -0.0999,-1.57879 c -0.15292,-2.41597 0.0706,-2.90317 1.53278,-3.34126 l 1.28716,-0.38564 v -8.42797 c 0,-9.01026 0.0217,-8.88775 -1.65156,-9.30772 -0.91946,-0.23077 -1.21712,-0.90496 -1.22407,-2.77245 -0.009,-2.33879 -0.77034,-2.18617 10.90986,-2.18617 h 10.52577 v 4.12576 c 0,4.65232 0.0784,4.51424 -2.56295,4.51424 -1.29728,0 -1.65987,-0.13891 -2.21943,-0.85028 -0.38308,-0.48701 -0.59151,-1.09391 -0.48785,-1.42051 0.2873,-0.90519 -0.87594,-1.28586 -3.61375,-1.1826 l -2.47602,0.0934 v 2.88 2.88 h 3.68 c 2.08326,0 3.78201,0.13885 3.9151,0.32 0.38467,0.52359 0.28391,4.57812 -0.11998,4.82773 -0.20068,0.12403 -1.96468,0.24053 -3.92,0.25889 l -3.55512,0.0334 v 3.2 3.2 l 2.91138,0.0914 c 3.29604,0.10343 3.67504,-0.10092 3.83092,-2.06555 0.11725,-1.47767 0.49103,-1.69492 2.92644,-1.70092 1.67138,-0.004 2.044,0.0984 2.33504,0.64217 0.5349,0.99947 0.35418,7.58925 -0.22399,8.16742 -0.25603,0.25603 -0.49122,0.43247 -0.52265,0.3921 -0.0314,-0.0404 -4.80914,-0.14838 -10.61714,-0.24 z m -64.11834,-2.00659 c -0.35779,-1.1 -1.5126,-4.88 -2.56625,-8.4 -1.05365,-3.52 -2.13326,-7.12 -2.39914,-8 -0.26587,-0.88 -0.6708,-2.24317 -0.89984,-3.02926 -0.36186,-1.24196 -0.5566,-1.45762 -1.48608,-1.64565 -0.5883,-0.11901 -1.19781,-0.34455 -1.35445,-0.50119 -0.15664,-0.15665 -0.1942,-1.25514 -0.0834,-2.4411 l 0.20136,-2.15629 6.11309,0.0867 6.1131,0.0868 0.0949,2.17012 0.0949,2.17013 -1.13485,0.47417 c -0.62417,0.26079 -1.13485,0.63405 -1.13485,0.82947 0,0.19541 0.72,3.2137 1.6,6.70729 0.88,3.4936 1.6,6.42779 1.6,6.52041 0,0.0926 0.13845,0.16841 0.30767,0.16841 0.31928,0 0.73872,-1.33575 1.45479,-4.63293 0.49574,-2.28266 1.17915,-5.02322 2.2361,-8.96707 0.42451,-1.584 0.92805,-3.492 1.11897,-4.24 l 0.34714,-1.36 h 3.50766 c 1.92922,0 3.50987,0.036 3.51256,0.08 0.003,0.044 0.50598,2.024 1.11843,4.4 0.61245,2.376 1.62497,6.408 2.25003,8.96 1.39946,5.71373 1.41325,5.76 1.71624,5.76 0.13556,0 0.71801,-1.692 1.29434,-3.76 0.57632,-2.068 1.39171,-4.96411 1.81197,-6.4358 0.96838,-3.39116 0.96146,-3.52869 -0.19783,-3.93282 -1.10778,-0.38618 -1.3607,-1.0782 -1.218,-3.33259 l 0.0999,-1.57879 5.84,-0.0872 5.84,-0.0872 v 2.41522 2.41522 l -0.9876,0.19752 c -1.12145,0.22429 -1.15822,0.29449 -2.48677,4.74648 -0.52521,1.76 -1.39099,4.64 -1.92394,6.4 -0.53296,1.76 -1.13405,3.848 -1.33576,4.64 -0.20172,0.792 -0.79183,2.772 -1.31137,4.4 l -0.94461,2.96 h -4.28227 -4.28227 l -0.52954,-1.82155 c -0.29124,-1.00185 -1.21932,-4.60771 -2.0624,-8.01303 -1.50649,-6.08497 -1.73959,-6.78596 -2.12756,-6.39799 -0.10675,0.10675 -0.90111,3.03269 -1.76524,6.50209 -0.86413,3.4694 -1.795,7.07806 -2.06861,8.01924 l -0.49747,1.71124 h -4.27121 -4.2712 z m 200.59833,-0.39278 c 0,-2.16417 0.0623,-2.40722 0.61715,-2.40722 1.54631,0 1.62285,-0.43768 1.62285,-9.28 0,-8.85569 -0.0748,-9.28 -1.63687,-9.28 -0.57883,0 -0.62337,-0.19238 -0.53715,-2.32 l 0.094,-2.32 5.5763,-0.0878 c 4.24697,-0.0669 5.63799,0.009 5.8351,0.32 0.30317,0.47771 0.35544,3.16917 0.0757,3.89815 -0.1061,0.27649 -0.7541,0.65382 -1.44,0.83851 l -1.2471,0.33581 v 2.51343 c 0,1.99672 0.10406,2.55336 0.50618,2.70766 0.76226,0.29251 9.19184,0.22376 9.66889,-0.0789 0.29421,-0.18663 0.38738,-0.95388 0.32,-2.6351 l -0.0951,-2.3718 -1.2,-0.58635 -1.2,-0.58636 v -2.22103 -2.22103 l 5.68,0.0874 5.68,0.0874 0.0943,2.14441 c 0.0926,2.1061 0.0768,2.15345 -0.88512,2.65086 l -0.97939,0.50646 0.0851,8.70498 0.0851,8.70498 0.88,0.42162 c 0.83507,0.40008 0.88,0.53511 0.88,2.64415 v 2.22254 h -5.76 -5.76 v -2.21364 -2.21365 l 1.2,-0.58635 1.2,-0.58636 v -2.56 -2.56 h -5.12 -5.12 l -0.092,2.58316 c -0.0893,2.50634 -0.0674,2.59436 0.73506,2.96 0.45489,0.20726 1.03356,0.37684 1.28592,0.37684 0.59546,0 0.85575,1.09004 0.73098,3.06121 l -0.0999,1.57879 -5.84,0.0872 -5.84,0.0872 z m 90.88,0.31278 c 0,-1.144 -6.7e-4,-2.188 -10e-4,-2.32 -8.2e-4,-0.132 0.43118,-0.35212 0.96,-0.48915 l 0.9615,-0.24915 v -8.95085 c 0,-4.92297 -0.108,-8.96923 -0.24,-8.99169 -0.132,-0.0225 -0.56856,-0.075 -0.97013,-0.11679 -0.40157,-0.0418 -0.76969,-0.1314 -0.81805,-0.19916 -0.0484,-0.0678 -0.008,-1.13121 0.0901,-2.36321 l 0.17806,-2.24 7.84,-0.0882 c 6.48998,-0.073 8.11075,-2e-5 9.4123,0.42361 4.05999,1.32145 6.05587,4.64469 5.57279,9.27897 -0.26695,2.56091 -0.63711,3.41718 -2.24805,5.2003 -1.93687,2.14388 -3.61233,2.78788 -7.93704,3.05078 -3.56778,0.21688 -3.2,-0.063 -3.2,2.43561 0,2.36687 0.1114,2.55224 1.73207,2.88207 0.98254,0.19996 0.98844,0.21366 1.08195,2.50893 l 0.094,2.30788 h -6.25402 -6.25402 z m 13.10772,-13.82701 c 2.89028,-0.51215 3.79337,-3.81959 1.63286,-5.98011 -0.89068,-0.89068 -1.18153,-0.98717 -2.98373,-0.98988 l -1.99685,-0.003 -0.0905,3.79623 -0.0905,3.79623 1.05047,-0.18324 c 0.57776,-0.10078 1.69294,-0.29709 2.47819,-0.43623 z M 119.81482,679.33475 c -2.12615,-1.05243 -2.23582,-1.29398 -1.89304,-4.16926 0.29258,-2.45414 2.48322,-7.37998 5.96225,-13.40664 0.6604,-1.144 1.59354,-3.016 2.07364,-4.16 0.94956,-2.26262 7.72715,-15.58698 10.41739,-20.48 0.91929,-1.672 2.13803,-3.904 2.70833,-4.96 0.57029,-1.056 2.4989,-4.44 4.28579,-7.52 1.7869,-3.08 3.41489,-5.888 3.61777,-6.24 0.20289,-0.352 1.43627,-2.368 2.74086,-4.48 2.02856,-3.28405 6.47033,-10.81403 8.06293,-13.66883 0.52688,-0.94445 1.44466,-2.5281 4.31822,-7.45118 1.0273,-1.76 2.21649,-3.848 2.64265,-4.64 1.09644,-2.03769 1.99049,-3.62951 5.01922,-8.93647 3.25811,-5.70889 8.40112,-15.98127 11.36479,-22.69944 1.21413,-2.75225 2.9314,-6.54122 3.81616,-8.41993 3.10736,-6.59825 6.00713,-14.47385 6.75425,-18.34416 0.20385,-1.056 0.44021,-2.28 0.52526,-2.72 0.506,-2.61801 0.47702,-4.38515 -0.0971,-5.92 -0.84865,-2.26887 -1.54349,-2.53135 -4.55961,-1.72242 -5.62485,1.50859 -14.60946,6.74547 -20.97918,12.22818 -3.45091,2.97037 -10.14659,9.62295 -13.25959,13.17424 -5.50296,6.27776 -14.08352,18.09671 -16.37858,22.56 -0.40726,0.792 -1.03327,1.87641 -1.39114,2.4098 -0.8062,1.20158 -5.75754,11.13553 -7.49144,15.0302 -1.74864,3.92779 -3.38268,8.53208 -4.65621,13.12001 -1.33194,4.79838 -1.4381,5.25791 -1.64563,7.12333 -0.0928,0.83417 -0.31643,2.38067 -0.49695,3.43667 -0.73488,4.29872 -0.38013,7.27458 1.10257,9.2491 1.04337,1.38944 1.21315,2.00138 0.80428,2.89876 -0.44457,0.97572 -1.66249,1.39529 -3.24803,1.11892 -2.28443,-0.39818 -4.00502,-2.28089 -4.90093,-5.36272 -0.51296,-1.76451 -0.71169,-8.9897 -0.32302,-11.74406 0.0993,-0.704 0.26311,-1.84991 0.36393,-2.54646 1.76158,-12.16995 11.31226,-32.68958 22.57088,-48.49355 14.02394,-19.68569 30.7548,-34.16075 44.39363,-38.40809 2.74649,-0.85531 3.9254,-1.04753 6.3723,-1.039 4.81153,0.0168 7.87477,1.58188 9.56505,4.88709 0.99456,1.9448 1.67241,6.58882 1.15547,7.9163 -0.18927,0.48603 -0.42993,1.8917 -0.53481,3.1237 -0.10487,1.232 -0.32418,2.744 -0.48735,3.36 -0.83777,3.16277 -3.02832,9.41412 -4.31709,12.32 -0.23417,0.528 -0.85502,2.04 -1.37967,3.36 -2.66364,6.70167 -10.98351,23.84333 -15.7084,32.36448 -4.00831,7.22881 -6.79586,12.14757 -8.57269,15.12688 -1.63062,2.73415 -2.01769,4.10485 -0.68583,2.42865 8.71801,-10.97195 16.57798,-20.23342 24.42422,-28.7793 3.46375,-3.77261 7.92486,-8.74061 9.91357,-11.04 4.47989,-5.17975 11.96524,-12.53844 15.37818,-15.11796 4.50062,-3.40159 10.03432,-6.50195 11.60603,-6.5025 0.40301,-1.3e-4 1.31117,0.29484 2.01812,0.6555 1.71442,0.87463 2.61305,2.82798 2.18252,4.74412 -0.99073,4.40942 -8.59849,19.89331 -16.3468,33.27021 -0.85062,1.46855 -1.54659,2.74232 -1.54659,2.83061 0,0.0883 -0.26843,0.54275 -0.59652,1.00992 -0.57784,0.8228 -2.53248,4.33189 -3.50332,6.28939 -0.26187,0.528 -0.63453,1.15878 -0.82814,1.40172 -0.19361,0.24295 -0.78402,1.20288 -1.31202,2.13318 -0.96542,1.70102 -3.2321,5.60238 -3.83576,6.60204 -0.17833,0.29531 -1.02712,1.73531 -1.88621,3.2 -0.85908,1.46469 -3.10725,5.25507 -4.99594,8.42307 -4.43591,7.44062 -8.00209,13.58754 -8.00209,13.79301 0,0.21558 -1.21443,3.00977 -1.63339,3.75815 -0.63847,1.14048 0.0615,0.96058 1.08224,-0.27815 0.56713,-0.68824 2.54315,-2.98786 4.39115,-5.11026 1.848,-2.1224 5.952,-7.00283 9.12,-10.84539 12.41228,-15.05523 20.44646,-24.23506 27.94042,-31.92466 2.16938,-2.226 3.81136,-4.12946 3.64885,-4.2299 -0.16252,-0.10044 -0.71258,-0.027 -1.22237,0.16327 -1.47387,0.54999 -4.472,-0.44879 -5.2659,-1.75425 -0.59671,-0.98121 -0.57156,-1.92485 0.0696,-2.61183 0.16426,-0.176 2.05608,-0.4174 4.20404,-0.53645 2.14795,-0.11906 4.91337,-0.31422 6.14537,-0.4337 l 2.24,-0.21723 3.52,-3.40743 c 16.93549,-16.39389 31.78021,-28.65155 36.15508,-29.85417 1.50668,-0.41418 4.93812,-0.37617 6.63627,0.0735 1.21234,0.32104 2.80865,1.97701 2.80865,2.91364 0,0.49851 -1.36299,2.48052 -10.43052,15.1676 -9.20501,12.87945 -10.65052,15.00444 -10.38981,15.27368 0.13817,0.14269 3.11527,0.18025 6.61578,0.0834 3.5005,-0.0968 18.04634,-0.15798 32.32408,-0.13595 l 25.95954,0.04 1.53167,-2.8435 c 3.05437,-5.67034 5.45278,-9.6678 9.00187,-15.00349 6.41754,-9.64812 7.68836,-10.83103 10.57816,-9.84638 2.49084,0.84872 2.82478,2.39561 0.97686,4.52511 -1.09647,1.26355 -5.97391,8.62521 -7.05426,10.64721 -0.40967,0.76673 -1.21747,2.04206 -1.79512,2.83406 -0.57764,0.792 -1.77249,2.88 -2.65521,4.64 -0.88272,1.76 -1.82113,3.44293 -2.08534,3.73984 -0.26422,0.29691 -0.38579,0.69291 -0.27016,0.88 0.14514,0.23485 6.98388,0.34016 22.08955,0.34016 h 21.87933 l 0.62209,-0.88 c 0.34215,-0.484 1.81383,-3.04 3.27041,-5.68 1.45657,-2.64 3.70643,-6.42721 4.99969,-8.41602 1.29327,-1.98881 2.35139,-3.67411 2.35139,-3.7451 0,-0.18772 5.06792,-6.90411 5.87561,-7.78682 0.37641,-0.41137 1.17647,-0.95408 1.7779,-1.20603 0.96934,-0.40607 1.25297,-0.39719 2.49777,0.0782 0.86741,0.33127 1.57378,0.86409 1.84766,1.39372 0.53378,1.03223 0.29349,1.60342 -1.85148,4.40096 -1.18083,1.54007 -3.71254,5.45017 -8.44385,13.04109 -1.89294,3.03704 -4.57402,8.23665 -4.39577,8.52505 0.12089,0.19561 4.49462,0.31603 11.6031,0.31944 6.27498,0.003 12.24198,0.0567 13.25999,0.11936 2.20452,0.13564 3.95041,0.94501 4.66493,2.16261 0.46559,0.79339 0.47002,0.97487 0.0422,1.72854 -0.42262,0.74445 -1.05304,0.9874 -5.43803,2.0957 -2.728,0.6895 -5.65717,1.24055 -6.50926,1.22455 -1.74836,-0.0328 -3.22701,-0.67401 -3.73252,-1.61856 -0.32723,-0.61143 -0.68322,-0.63669 -8.97604,-0.63669 h -8.6353 l -1.03344,2.05159 c -0.56839,1.12837 -2.46305,4.54466 -4.21034,7.59175 -8.52559,14.8677 -14.79759,28.16231 -16.84326,35.70225 -0.67223,2.47771 -0.68229,2.67144 -0.17872,3.44 0.41386,0.63163 0.80154,0.81442 1.72727,0.81442 5.22918,0 20.08477,-7.42027 36.39161,-18.17737 3.344,-2.20593 6.872,-4.59059 7.84,-5.29924 5.03789,-3.68816 10.27636,-7.67971 10.48441,-7.9888 0.12957,-0.19249 1.74759,-3.24671 3.59559,-6.78716 5.86258,-11.23167 10.13337,-18.51603 16.50273,-28.14744 7.5697,-11.44648 12.2583,-17.23085 15.17127,-18.71694 1.79251,-0.91447 5.46031,-0.9043 6.7566,0.0187 0.54688,0.38942 0.92647,0.94915 0.92228,1.36 -0.0131,1.28513 -1.71174,2.77821 -3.1607,2.77821 -0.94244,0 -3.03876,2.31667 -7.69351,8.50219 -9.0867,12.07498 -15.40225,22.43283 -23.79056,39.01781 -1.51329,2.992 -4.20935,8.29099 -5.99126,11.77553 -1.78191,3.48454 -3.18619,6.49647 -3.12062,6.69317 0.0728,0.21836 0.29924,0.13795 0.58149,-0.20648 0.44776,-0.54639 1.6273,-1.90488 3.86359,-4.44974 2.16331,-2.46181 8.79652,-9.14406 10.19869,-10.27409 5.02343,-4.04846 7.66899,-5.29839 11.21444,-5.29839 1.53792,0 1.94837,0.13009 2.66192,0.84364 0.69985,0.69986 0.84364,1.13347 0.84364,2.54425 0,3.1344 -0.65789,4.91532 -4.88259,13.21729 -4.01891,7.89756 -6.18015,12.92026 -5.81427,13.51228 0.30911,0.50014 1.06394,0.30705 3.42484,-0.87611 6.72013,-3.36777 14.32875,-8.26238 24.563,-15.80134 1.79191,-1.32 4.02372,-2.904 4.95956,-3.52 3.25401,-2.1419 6.08195,-4.27636 8.14945,-6.15102 3.8211,-3.4647 3.79799,-3.44899 5.07317,-3.44899 1.21991,0 2.57677,1.02568 3.01385,2.27822 0.24721,0.70846 -0.69984,2.1748 -2.148,3.32579 -2.99805,2.38285 -7.18252,7.21323 -11.19965,12.92844 -1.87208,2.66343 -3.93439,6.75918 -4.98076,9.89176 -1.26536,3.78822 -1.1462,3.99896 1.83797,3.25054 2.09899,-0.52641 6.76484,-2.33574 9.04342,-3.50685 0.616,-0.3166 2.344,-1.10355 3.84,-1.74878 3.94217,-1.70026 9.22152,-4.74074 17.28,-9.9519 1.144,-0.73979 2.74012,-1.75955 3.54694,-2.26614 1.33215,-0.83644 4.09059,-2.59959 11.57895,-7.40108 1.44106,-0.924 2.73589,-1.68 2.87739,-1.68 0.1415,0 1.38755,-0.792 2.76899,-1.76 2.17394,-1.52332 2.7126,-1.76 4.00561,-1.76 0.82165,0 1.91875,0.2197 2.43801,0.48822 0.83447,0.43152 0.94411,0.65639 0.94411,1.93633 0,1.35103 -0.0747,1.47932 -1.11399,1.91357 -1.79898,0.75166 -8.12679,7.49559 -10.94233,11.66189 -4.16225,6.1591 -5.98885,12.70951 -3.78041,13.55697 0.6346,0.24352 3.39251,-1.18207 5.95172,-3.07649 2.12117,-1.57017 3.23994,-2.68089 5.88277,-5.84048 0.44164,-0.528 1.1703,-1.392 1.61924,-1.92 0.44893,-0.528 1.52374,-1.91898 2.38844,-3.09106 l 1.5722,-2.13106 -0.68612,-0.87227 c -1.14456,-1.45507 -1.52836,-4.30656 -0.93425,-6.94123 0.44942,-1.99302 1.13935,-3.28234 2.46674,-4.60973 1.35625,-1.35625 2.28199,-1.71466 4.42881,-1.71466 1.36171,0 1.94294,0.1824 2.98364,0.93627 2.20894,1.60015 2.59633,3.39609 1.93782,8.98374 -0.0804,0.68225 0.0235,0.788 0.70572,0.71851 1.59915,-0.16289 10.92622,-3.39349 13.50947,-4.67926 2.56781,-1.27808 2.69369,-1.39416 4.0334,-3.71926 0.76058,-1.32 1.5909,-2.832 1.84516,-3.36 0.25426,-0.528 1.17997,-2.0872 2.05713,-3.4649 0.87716,-1.37769 1.59484,-2.56125 1.59484,-2.63012 0,-0.38292 6.99959,-10.38641 11.63274,-16.62498 5.25936,-7.08175 6.83006,-8.89895 13.55492,-15.68209 6.241,-6.2951 10.63682,-9.73806 13.83775,-10.83821 1.28323,-0.44104 1.5774,-0.4402 2.94921,0.009 0.83809,0.27412 1.88865,0.83655 2.33459,1.24983 0.69029,0.63973 0.81079,1.03057 0.81079,2.62969 0,3.09485 -1.01804,5.40103 -5.10055,11.55432 -0.9787,1.47513 -2.06257,3.13113 -2.40861,3.68 -1.60383,2.54394 -11.2764,14.77925 -13.89251,17.57332 -0.46108,0.49244 -1.43931,1.57244 -2.17384,2.4 -1.82178,2.05248 -6.20714,6.44204 -8.81372,8.82215 -1.18207,1.07937 -2.85543,2.61049 -3.71858,3.40249 -0.86314,0.792 -2.23567,2.016 -3.05006,2.72 -0.8144,0.704 -2.10232,1.856 -2.86206,2.56 -1.65724,1.53565 -3.09936,2.70352 -4.97521,4.02907 -1.18227,0.83544 -1.66005,1.54748 -3.13127,4.66655 -0.95488,2.02438 -1.96372,4.28002 -2.24188,5.01254 -2.36201,6.22026 -3.44648,11.10536 -2.63904,11.88781 0.3772,0.36552 0.8487,0.29564 3.00733,-0.44575 5.56455,-1.91116 13.96306,-6.94929 24.01589,-14.40675 5.59117,-4.14768 5.82966,-4.33842 8.15374,-6.52133 0.9733,-0.91417 2.1253,-1.9466 2.56,-2.29428 0.43471,-0.34768 2.01437,-1.60677 3.51037,-2.79798 1.496,-1.19121 2.87307,-2.29127 3.06016,-2.44457 0.81445,-0.66738 1.85183,-1.05066 2.43262,-0.89878 0.34504,0.0902 1.15832,-0.0622 1.80728,-0.33883 1.05293,-0.44875 3.49202,-1.10697 5.85455,-1.57993 0.51276,-0.10265 1.37659,0.10554 2.24,0.53986 1.91103,0.96129 2.52539,1.55536 2.52539,2.44197 0,0.41272 0.086,0.7504 0.19112,0.7504 0.10511,0 0.86111,-0.75435 1.68,-1.67634 2.73628,-3.08082 2.79496,-3.12369 4.27434,-3.12316 1.80104,6.5e-4 3.52556,0.88275 3.91372,2.00188 0.39359,1.1348 -0.44656,2.89169 -2.59231,5.42098 -4.67039,5.50518 -5.59309,6.76146 -6.94901,9.46126 -1.685,3.35503 -3.07843,7.35701 -3.07666,8.83623 0.002,1.43675 1.06793,2.98113 2.46899,3.57627 1.73364,0.7364 3.53528,0.25529 8.9162,-2.38095 8.30861,-4.0706 14.51823,-8.11253 20.0889,-13.07616 1.037,-0.924 2.00572,-1.68 2.15272,-1.68 0.14699,0 0.83318,-0.54 1.52486,-1.2 1.26005,-1.20234 3.13935,-2.90773 5.22048,-4.73738 1.83917,-1.61692 2.89054,-1.91413 4.50164,-1.27253 3.01957,1.20249 3.30528,2.57015 0.96501,4.61933 -0.836,0.73202 -2.024,1.77258 -2.64,2.31235 -0.616,0.53978 -1.984,1.76227 -3.04,2.71665 -1.056,0.95439 -2.496,2.12817 -3.2,2.60841 -0.704,0.48024 -1.424,1.03612 -1.6,1.23529 -0.35755,0.40462 -4.42633,3.35856 -6.4,4.64642 -5.17547,3.37707 -8.74605,5.52309 -11.36,6.82769 -1.672,0.83447 -3.83264,1.91446 -4.80142,2.39996 -2.66305,1.33459 -4.85007,1.70833 -8.99792,1.53763 -3.99208,-0.16428 -5.56813,-0.68561 -7.56495,-2.50236 -1.83187,-1.66667 -2.31318,-2.7756 -2.31451,-5.33258 -6.6e-4,-1.26561 -0.14945,-2.39274 -0.33065,-2.50473 -0.1812,-0.11198 -2.5932,2.07938 -5.36,4.8697 -4.55194,4.59064 -5.29051,5.20189 -7.76293,6.42473 -1.50281,0.74328 -3.08681,1.36154 -3.52,1.37391 -0.43319,0.0124 -1.06096,0.12974 -1.39504,0.26082 -0.82238,0.32267 -3.35755,-0.37116 -4.88932,-1.33813 -1.82015,-1.14901 -3.15633,-4.75903 -2.54611,-6.87895 0.19196,-0.66687 0.19115,-1.16594 -0.002,-1.35931 -0.3134,-0.3134 -1.15794,0.16746 -6.07576,3.45937 -3.63718,2.43468 -10.38774,5.71026 -13.67496,6.63551 -3.0526,0.85922 -6.72401,1.0578 -8.44768,0.45692 -0.53843,-0.18769 -1.34322,-0.87169 -1.78842,-1.52 -0.6999,-1.01919 -0.8143,-1.54685 -0.84532,-3.89872 -0.0597,-4.52545 1.26136,-9.51701 4.42259,-16.71063 0.754,-1.71578 0.50734,-2.09992 -0.88579,-1.3795 -1.34651,0.6963 -7.62785,2.25927 -11.05959,2.75192 -3.48033,0.49963 -4.43701,1.06171 -6.19936,3.64235 -0.72711,1.06472 -1.90103,2.58386 -2.6087,3.37586 -0.70768,0.792 -1.75137,1.99383 -2.31931,2.67073 -1.39107,1.65795 -4.7529,5.03642 -5.70357,5.73181 -0.42298,0.3094 -1.26537,0.92165 -1.87197,1.36055 -1.93412,1.39942 -6.28336,2.77552 -8.81709,2.78973 -3.65119,0.0205 -6.70038,-2.1732 -7.62041,-5.48237 -0.50623,-1.8208 -0.50082,-2.0183 0.12406,-4.52901 0.35936,-1.44386 1.00692,-3.56447 1.43903,-4.71249 1.09103,-2.8986 1.11852,-2.89263 -2.58268,-0.56089 -12.0132,7.56828 -23.94556,13.47933 -30.69447,15.20541 -3.33214,0.85222 -7.82159,0.87306 -9.62552,0.0447 -1.63451,-0.75056 -2.2315,-1.43807 -2.86198,-3.2959 -0.47977,-1.41371 -0.47043,-1.6381 0.16645,-4 0.37111,-1.37624 1.17686,-3.55882 1.79057,-4.85016 0.61371,-1.29134 1.04764,-2.41608 0.96429,-2.49943 -0.0833,-0.0833 -2.00279,1.0498 -4.26544,2.51811 -9.57676,6.21469 -12.25822,7.81609 -15.48848,9.24992 -1.61636,0.71745 -3.68196,1.40531 -4.59023,1.52856 -0.90827,0.12326 -1.82859,0.33361 -2.04516,0.46746 -0.36242,0.22399 -1.31432,0.004 -3.70733,-0.85564 -0.50453,-0.1813 -1.33253,-0.90282 -1.84,-1.60337 -0.78747,-1.08706 -0.92269,-1.57302 -0.92269,-3.31582 0,-2.87299 0.73627,-4.80014 5.32671,-13.94232 2.20243,-4.38631 3.92405,-8.05548 3.82581,-8.15372 -0.0982,-0.0982 -0.59871,0.16626 -1.11217,0.58777 -0.51346,0.42151 -1.63259,1.34273 -2.48696,2.04717 -0.85437,0.70444 -2.48939,2.27522 -3.63339,3.49063 -1.144,1.21541 -2.8,2.97544 -3.68,3.91118 -0.88,0.93574 -2.104,2.29282 -2.72,3.01572 -0.616,0.72291 -1.47545,1.69853 -1.90989,2.16803 -0.43444,0.46951 -1.4931,1.78965 -2.35258,2.93365 -0.85947,1.144 -1.83354,2.368 -2.1646,2.72 -0.33105,0.352 -1.34946,1.576 -2.26312,2.72 -0.91366,1.144 -3.10071,3.484 -4.86011,5.2 -2.9948,2.92091 -3.28278,3.12 -4.51311,3.12 -1.21761,0 -2.57125,-0.61441 -3.13169,-1.42145 -0.93907,-1.35227 1.40377,-8.70763 5.5871,-17.54078 0.89662,-1.89322 1.55821,-3.51423 1.4702,-3.60223 -0.088,-0.088 -0.795,0.30221 -1.57111,0.86715 -5.54943,4.03953 -20.12189,12.83009 -27.27624,16.45388 -8.54131,4.3263 -13.13348,5.85709 -17.97485,5.99187 -3.53317,0.0984 -7.0101,-1.24416 -8.44649,-3.26138 -0.70854,-0.99505 -1.55802,-3.35326 -1.57312,-4.36706 -0.0146,-0.98131 1.19862,-5.9023 1.85389,-7.51952 1.80313,-4.45019 3.24578,-8.38709 3.11961,-8.51326 -0.0794,-0.0794 -2.57656,1.48069 -5.54916,3.46695 -4.65647,3.11139 -13.50865,8.568 -18.84473,11.61615 -2.73191,1.56056 -10.15943,5.18073 -12.69978,6.18987 -2.06754,0.82131 -3.76138,1.33916 -7.14022,2.18297 -1.76027,0.43959 -5.51716,0.29221 -7.19959,-0.28245 -2.75848,-0.94219 -3.9865,-1.92147 -4.99536,-3.98351 -1.23995,-2.53436 -1.04621,-5.31243 0.69411,-9.95311 1.9467,-5.19098 2.48523,-6.80637 2.32311,-6.9685 -0.0951,-0.0951 -1.92892,1.09098 -4.07513,2.63574 -2.14621,1.54477 -4.14631,2.9523 -4.44467,3.12786 -0.29836,0.17556 -0.97447,0.62129 -1.50247,0.9905 -3.0651,2.14336 -14.54484,7.93617 -16.56751,8.36016 -0.65634,0.13758 -2.95716,0.16873 -5.11292,0.0692 -3.59323,-0.16587 -4.0859,-0.26607 -5.91733,-1.20348 -3.03467,-1.55328 -4.8079,-4.72799 -4.40463,-7.88585 l 0.20307,-1.59025 -2.18034,2.04871 c -1.19918,1.1268 -3.48949,3.35442 -5.08956,4.95026 -2.99521,2.98731 -6.04736,5.06738 -8.29078,5.65026 -0.704,0.18292 -1.72317,0.46762 -2.26483,0.63269 -1.11755,0.34056 -4.63547,-0.63085 -5.68976,-1.57112 -0.83781,-0.74722 -2.07302,-3.28999 -2.30603,-4.74715 -0.23769,-1.48644 0.53566,-4.67885 1.6861,-6.9603 2.7756,-5.50427 9.84426,-13.37705 15.13452,-16.85621 2.82167,-1.85568 8.94902,-4.67023 10.68476,-4.90796 0.54738,-0.075 1.46164,-0.23552 2.03169,-0.35678 1.44632,-0.30766 4.38112,1.1371 5.08848,2.50499 l 0.51435,0.99463 1.32036,-1.43452 c 0.7262,-0.78898 1.64009,-1.82051 2.03087,-2.29228 0.89332,-1.07845 2.05321,-1.37879 3.56986,-0.9244 1.76848,0.52985 2.59963,1.45251 2.59963,2.88582 0,1.41398 -0.81062,2.64564 -4.64,7.05005 -2.87621,3.3081 -3.48284,4.21941 -5.25544,7.89494 -1.63166,3.3833 -2.26456,5.59163 -2.26456,7.90157 0,1.65845 0.11309,1.99963 0.93539,2.82192 0.51446,0.51446 1.12646,0.9464 1.36,0.95987 0.23353,0.0135 0.69493,0.0754 1.02532,0.13766 1.05354,0.19849 5.84085,-1.64446 10.04552,-3.86718 8.93659,-4.72417 13.77719,-8.1962 23.59377,-16.92321 1.936,-1.72112 3.97647,-3.40727 4.53437,-3.74702 0.78157,-0.47594 1.81748,-2.10111 4.51368,-7.08122 1.92462,-3.55494 4.24015,-7.69808 5.14563,-9.20698 0.90547,-1.50891 1.64593,-2.87691 1.64546,-3.04 -0.001,-0.491 -43.33352,-0.61107 -44.511,-0.12334 -0.7812,0.32358 -1.21331,0.31468 -2.3048,-0.0475 -0.78031,-0.25891 -2.34924,-0.41534 -3.74334,-0.37324 -1.32,0.0399 -5.25067,0.15649 -8.73482,0.25916 l -6.33482,0.18667 -6.62927,9.98084 c -16.82077,25.32486 -26.14705,41.35701 -29.82358,51.26756 -1.93948,5.22814 -2.1839,7.9685 -0.83952,9.41274 1.8057,1.93982 1.72897,3.20261 -0.24469,4.02726 -2.07708,0.86786 -5.57608,-0.71608 -6.7303,-3.04671 -0.74211,-1.49849 -1.23766,-4.35887 -0.97776,-5.64376 0.13753,-0.67993 0.28042,-1.45224 0.31753,-1.71624 0.67785,-4.82195 6.74751,-17.81816 12.47912,-26.72 0.5666,-0.88 2.42839,-3.976 4.1373,-6.88 3.7462,-6.36601 3.2788,-5.59606 4.78173,-7.87684 0.6825,-1.03574 2.5517,-3.89917 4.15377,-6.36317 1.60208,-2.464 4.68345,-7.12822 6.84749,-10.36493 2.16404,-3.23671 3.84713,-5.97271 3.74019,-6.08 -0.10693,-0.10729 -2.6021,-0.24274 -5.54482,-0.30102 l -5.35039,-0.10595 -7.34358,7.48149 c -8.90495,9.07219 -16.55889,17.7209 -26.38904,29.81882 -3.5246,4.3377 -7.12535,8.64038 -12.10041,14.45928 -1.64224,1.92077 -3.46644,4.06832 -4.05379,4.77232 -3.17857,3.80987 -5.74906,6.63167 -7.79764,8.56 -2.28315,2.14913 -2.30392,2.15999 -4.12869,2.1588 -2.56914,-0.002 -3.66449,-0.73481 -4.52196,-3.02662 -0.36963,-0.9879 -0.67242,-2.11479 -0.67288,-2.50419 -0.002,-1.5235 1.7241,-7.97246 2.80149,-10.46799 1.17432,-2.72005 4.40044,-9.48388 4.7315,-9.92 0.20041,-0.264 1.01957,-1.704 1.82037,-3.2 1.52639,-2.85153 5.3506,-9.12377 10.35502,-16.98369 1.63316,-2.56503 3.67449,-5.94903 4.53629,-7.52 0.8618,-1.57097 1.89375,-3.43232 2.29322,-4.13632 0.39947,-0.704 1.45759,-2.576 2.35137,-4.16 0.89378,-1.584 2.30303,-4.032 3.13167,-5.44 3.44872,-5.86001 12.7799,-23.75962 12.7799,-24.51516 0,-1.17863 -8.15397,6.51929 -14.57251,13.75747 -3.33712,3.76327 -8.08349,9.0927 -10.54749,11.84317 -14.32742,15.99323 -22.71069,26.12966 -32.9933,39.89311 -12.80278,17.13674 -19.71077,27.0597 -28.51766,40.96415 -2.9743,4.69586 -4.35917,7.3033 -5.51161,10.37727 -2.04166,5.44583 -3.62495,9.01146 -5.11572,11.5208 -1.90645,3.20903 -3.3819,3.83219 -6.00231,2.5351 z M 322.84264,621.5698 c 4.0965,-1.36996 15.9894,-7.05712 17.36941,-8.306 0.28257,-0.25573 0.62589,-0.46495 0.76293,-0.46495 0.48683,0 9.47634,-5.50733 14.9461,-9.15657 3.05489,-2.03812 8.25002,-5.73029 11.54474,-8.20483 l 5.9904,-4.49916 3.4295,-6.26972 c 1.88622,-3.44835 3.66109,-6.70173 3.94416,-7.22973 0.28306,-0.528 0.90411,-1.56913 1.3801,-2.31364 0.47599,-0.7445 0.86544,-1.5005 0.86544,-1.68 0,-0.21076 -2.23131,-0.32636 -6.29941,-0.32636 -6.16586,0 -6.3982,0.0245 -10.96,1.15749 -2.56332,0.63662 -5.02059,1.15617 -5.46059,1.15455 -2.40083,-0.009 -2.67048,-0.0997 -3.77563,-1.27204 l -1.13121,-1.2 -7.89222,-0.0953 c -7.21622,-0.0871 -7.94969,-0.046 -8.5631,0.48 -0.62139,0.53288 -2.46374,3.67645 -5.11949,8.73531 -0.60056,1.144 -1.2748,2.296 -1.4983,2.56 -0.2235,0.264 -0.62246,0.912 -0.88657,1.44 -0.26411,0.528 -1.02005,1.896 -1.67987,3.04 -1.34085,2.32479 -6.96208,13.4265 -8.42547,16.64001 -2.28509,5.01789 -4.21129,10.22344 -5.19019,14.02646 -0.41584,1.61556 0.10853,2.78758 1.35417,3.02667 0.40033,0.0768 0.76713,0.15932 0.8151,0.18329 0.048,0.024 2.06398,-0.61749 4.48,-1.42547 z m -67.58689,-4.05095 c 2.13073,-1.50824 4.39606,-3.69168 9.21308,-8.88 3.51319,-3.784 7.97475,-8.42173 9.91459,-10.30607 l 3.52697,-3.42606 -0.93748,-0.36578 c -1.51956,-0.59287 -2.28401,-0.45339 -5.04234,0.92007 -4.04179,2.01253 -6.34348,3.65268 -9.85263,7.02084 -5.58548,5.36109 -8.76061,9.80378 -10.04166,14.05046 -0.39753,1.31781 -0.31155,2.98654 0.15388,2.98654 0.13207,0 1.51158,-0.9 3.06559,-2 z m 339.0251,0.0701 c 1.67362,-1.13065 5.39603,-4.75878 10.60957,-10.34085 2.0527,-2.1978 4.9461,-5.26796 7.66063,-8.12863 0.4596,-0.48434 1.64844,-1.61674 2.64186,-2.51644 l 1.80621,-1.63582 -1.42197,-0.54306 -1.42198,-0.54305 -2.36714,1.09368 c -2.59815,1.20042 -7.24127,4.06634 -8.64563,5.33643 -3.18306,2.87873 -7.72893,7.99821 -9.88615,11.13362 -0.98141,1.42643 -1.94346,3.64153 -2.56864,5.91425 -0.24536,0.89193 -0.22932,1.32175 0.0624,1.67328 0.4557,0.54909 0.7742,0.41888 3.53082,-1.44341 z m -13.52303,-37.75011 c 1.13687,-1.144 2.4474,-2.52311 2.91231,-3.0647 0.4649,-0.54159 2.62771,-3.06159 4.80623,-5.6 2.17852,-2.53841 4.22804,-4.9033 4.55449,-5.2553 3.53892,-3.81588 13.72456,-18.11599 13.72456,-19.26857 0,-0.95527 -7.00643,5.74911 -11.44184,10.94857 -7.10439,8.32822 -19.59816,25.16439 -19.59816,26.40981 0,0.46522 2.44819,-1.5593 5.04241,-4.16981 z m -318.6424,-14.59692 c 3.44923,-5.08943 6.81929,-9.94109 9.62886,-13.86206 2.88927,-4.0322 3.35522,-4.89038 2.22571,-4.09924 -3.47218,2.43201 -22.73457,19.77694 -22.73457,20.47147 0,0.14538 2.052,0.22437 4.56,0.17554 l 4.56,-0.0888 z m 230.1965,17.42266 c -0.74134,-0.35897 -1.39651,-1.53396 -1.39651,-2.50453 0,-0.6177 5.70657,-5.19957 7.13935,-5.73225 1.49822,-0.55701 3.79934,0.31295 4.55902,1.72359 0.75129,1.39506 0.43172,2.03539 -1.98787,3.98317 -3.29931,2.65594 -6.219,3.54443 -8.31399,2.53002 z m 173.41759,-10.9301 c -1.82636,-0.66873 -1.84603,-0.79172 -0.73267,-4.5813 1.28334,-4.36811 4.5677,-17.33025 5.62364,-22.19434 0.83145,-3.83004 2.93484,-16.0043 2.95788,-17.12 0.007,-0.352 0.17033,-1.36 0.36235,-2.24 0.19202,-0.88 0.43253,-2.608 0.53445,-3.84 0.10193,-1.232 0.25047,-2.816 0.33009,-3.52 0.67936,-6.00695 0.76422,-6.97872 1.3134,-15.04 0.20073,-2.94656 0.4085,-11.67469 0.41133,-17.28 0.006,-11.60309 -0.48905,-21.89481 -1.4696,-30.56 -0.57398,-5.07237 -2.26135,-17.06066 -2.72495,-19.36 -0.17743,-0.88 -0.83015,-4.12 -1.45048,-7.2 -1.62436,-8.06495 -1.95857,-9.61708 -2.67522,-12.42391 -0.55383,-2.16913 -2.98681,-10.69985 -4.8074,-16.8561 -0.61831,-2.09079 -2.79829,-8.57 -3.22999,-9.6 -0.87548,-2.0888 -1.25693,-3.16996 -1.25693,-3.56256 0,-0.24443 -0.28235,-1.05484 -0.62745,-1.80092 -0.3451,-0.74609 -1.00992,-2.43652 -1.47739,-3.75652 -0.46747,-1.32 -1.33711,-3.44715 -1.93255,-4.72702 -0.59544,-1.27986 -1.08261,-2.48164 -1.08261,-2.67062 0,-0.18899 -0.1957,-0.72583 -0.4349,-1.19298 -0.43617,-0.85188 -1.30276,-2.70896 -2.93488,-6.28938 -0.88465,-1.94068 -6.40572,-13.08091 -8.47022,-17.09091 -0.616,-1.1965 -1.41843,-2.59252 -1.78318,-3.10227 -0.36474,-0.50975 -0.92722,-1.50282 -1.24994,-2.20682 -0.32273,-0.704 -0.95553,-1.856 -1.40624,-2.56 -1.11539,-1.74222 -1.80962,-2.92737 -2.75159,-4.69735 -0.43828,-0.82355 -0.94636,-1.58974 -1.12905,-1.70265 -0.18269,-0.11291 -0.69558,-0.8791 -1.13976,-1.70264 -1.88003,-3.48579 -10.75903,-16.37369 -14.94503,-21.69278 -0.56937,-0.72348 -1.46478,-1.87548 -1.98981,-2.56 -2.16257,-2.8195 -5.93643,-7.44705 -7.09091,-8.69496 -0.67897,-0.73392 -1.66649,-1.91967 -2.19449,-2.635 -0.528,-0.71533 -1.49665,-1.81879 -2.15257,-2.45213 -0.65591,-0.63335 -1.27254,-1.38351 -1.37029,-1.66702 -0.0977,-0.28351 -0.82255,-1.01947 -1.61066,-1.63547 -0.78812,-0.616 -1.52373,-1.408 -1.63469,-1.76 -0.11095,-0.352 -1.1535,-1.49762 -2.31676,-2.54582 -2.55421,-2.30155 -7.46731,-7.21755 -10.16818,-10.17418 -1.08523,-1.188 -2.14162,-2.16 -2.34753,-2.16 -0.20591,0 -1.1238,-0.756 -2.03976,-1.68 -0.91595,-0.924 -2.37956,-2.30584 -3.25246,-3.07075 -0.87291,-0.76491 -2.0191,-1.78239 -2.5471,-2.26106 -3.23396,-2.93181 -9.82811,-8.23848 -16,-12.87606 -4.02928,-3.02762 -17.2789,-12.11213 -17.66535,-12.11213 -0.0857,0 -0.60709,-0.324 -1.15861,-0.72 -0.55152,-0.396 -1.24403,-0.864 -1.53892,-1.04 -0.29489,-0.176 -2.09788,-1.27194 -4.00664,-2.43542 -1.90876,-1.16348 -4.33448,-2.5905 -5.39048,-3.17116 -1.056,-0.58065 -2.496,-1.39343 -3.2,-1.80617 -0.704,-0.41274 -2.072,-1.13006 -3.04,-1.59404 -0.968,-0.46398 -1.97826,-1.03105 -2.24502,-1.26015 -0.58735,-0.50443 -9.77195,-5.08029 -13.11498,-6.53402 -1.32,-0.57401 -2.976,-1.30336 -3.68,-1.62078 -0.704,-0.31742 -2.072,-0.89023 -3.04,-1.27291 -0.968,-0.38269 -1.98733,-0.89595 -2.26519,-1.14058 -0.27786,-0.24462 -0.63786,-0.4453 -0.8,-0.44594 -0.27448,-0.001 -3.26572,-1.11503 -7.01481,-2.61234 -3.97995,-1.58951 -15.85063,-5.6354 -22.39999,-7.63461 -4.60069,-1.40436 -12.37694,-3.44653 -17.44,-4.58002 -1.32,-0.29551 -3.624,-0.81608 -5.12,-1.15681 -1.496,-0.34074 -4.016,-0.84977 -5.6,-1.13118 -1.584,-0.28141 -3.672,-0.6518 -4.64,-0.82308 -3.93633,-0.69651 -10.34673,-1.58074 -10.48166,-1.44581 -0.0793,0.0793 -0.48331,0.0152 -0.89784,-0.1424 -0.68129,-0.25902 -8.74934,-1.21963 -10.7005,-1.27403 -0.44,-0.0123 -1.664,-0.10426 -2.72,-0.20442 -7.05866,-0.6695 -12.17808,-0.84489 -24.32,-0.83318 -12.09074,0.0117 -16.57927,0.16384 -24,0.8137 -0.88,0.0771 -2.896,0.22859 -4.48,0.33673 -1.584,0.10814 -3.312,0.29318 -3.84,0.41118 -0.528,0.11801 -1.392,0.26337 -1.92,0.32303 -0.528,0.0597 -1.464,0.17343 -2.08,0.25283 -0.616,0.0794 -1.78273,0.21304 -2.59273,0.29697 -3.07183,0.31833 -8.91015,1.25169 -12.60727,2.01552 -2.112,0.43634 -4.27538,0.84084 -4.80751,0.8989 -2.70276,0.29487 -20.47465,4.74762 -27.03249,6.77298 -11.36078,3.50875 -19.67341,6.59397 -31.85525,11.82306 -6.93279,2.97592 -20.42902,9.66843 -24.78475,12.29027 -0.264,0.15891 -2.928,1.69727 -5.92,3.41858 -9.29795,5.34916 -21.64109,13.82291 -33.05243,22.69099 -3.91819,3.04494 -13.38844,11.28532 -18.84665,16.39911 -13.66056,12.79856 -29.68544,31.50053 -39.25698,45.8152 -1.35335,2.024 -2.99688,4.43802 -3.65229,5.36449 -0.6554,0.92647 -1.42468,2.11287 -1.70951,2.63644 -0.28483,0.52358 -0.66697,1.13356 -0.84921,1.35551 -0.3788,0.46135 -5.2662,8.47554 -5.61273,9.20356 -0.12566,0.264 -0.56795,1.056 -0.98286,1.76 -5.028,8.5312 -11.81747,22.19417 -15.82209,31.84 -6.42247,15.46968 -11.91772,32.76967 -15.23704,47.96887 -1.01145,4.63141 -2.56419,12.35868 -2.932,14.59114 -0.087,0.528 -0.21844,1.32 -0.29212,1.76 -0.0737,0.44 -0.21966,1.58461 -0.32443,2.54358 -0.10476,0.95897 -0.25569,1.84911 -0.3354,1.97808 -0.0797,0.12897 -0.2164,1.07236 -0.30375,2.09642 -0.0873,1.02405 -0.24456,2.22192 -0.34936,2.66192 -0.1048,0.44 -0.23685,1.304 -0.29343,1.92 -0.0566,0.616 -0.1871,1.768 -0.29001,2.56 -0.29398,2.26237 -0.49609,4.17312 -0.64313,6.08 -0.0746,0.968 -0.2181,2.552 -0.31879,3.52 -0.55666,5.35136 -0.75868,11.6686 -0.76238,23.84 -0.004,13.24248 0.23499,19.36584 1.0617,27.2 0.0929,0.88 0.23738,2.248 0.32114,3.04 0.15093,1.42717 0.39786,3.60117 0.65424,5.76 0.0731,0.616 0.42865,3.064 0.78999,5.44 0.36134,2.376 0.71409,4.824 0.78389,5.44 0.4297,3.79205 2.48546,13.62512 4.86582,23.274 0.96525,3.91271 1.67038,7.25093 1.56695,7.41828 -0.2401,0.38849 -3.63357,1.15796 -3.90587,0.88565 -0.29061,-0.29061 -3.79275,-14.31748 -4.76825,-19.09793 -1.29782,-6.35999 -2.280312,-12.00892 -2.537962,-14.5922 -0.086,-0.86229 -0.23659,-1.9278 -0.33465,-2.3678 -0.22002,-0.9873 -0.72019,-4.14815 -0.75955,-4.8 -0.042,-0.69527 -0.31156,-3.13288 -0.53087,-4.8 -0.63607,-4.83543 -1.37466,-15.61602 -1.58945,-23.2 -0.41788,-14.7551 0.077,-28.04622 1.57871,-42.4 0.29332,-2.80366 0.88419,-7.34712 1.29008,-9.92 0.0694,-0.44 0.21118,-1.51382 0.31503,-2.38626 0.10385,-0.87245 0.56,-3.60845 1.013672,-6.08 0.45366,-2.47156 1.02328,-5.57374 1.26581,-6.89374 2.16706,-11.79438 7.60622,-30.68779 12.9434,-44.96001 8.09969,-21.65947 21.13415,-46.48288 33.52599,-63.8484 0.74978,-1.05071 2.04578,-2.8977 2.88,-4.10442 3.38069,-4.89023 9.6113,-12.79523 15.54841,-19.72683 13.48525,-15.74408 29.07387,-30.40497 45.48836,-42.78122 4.2292,-3.18875 13.81333,-10.00898 15.75168,-11.20917 0.48858,-0.30252 2.25632,-1.41679 3.92832,-2.47616 2.73815,-1.73488 9.51507,-5.77279 15.52,-9.24733 1.232,-0.71285 3.68,-2.01295 5.44,-2.88911 1.76,-0.87616 3.56,-1.81738 4,-2.0916 2.93279,-1.82778 18.34664,-8.58856 29.16795,-12.79357 4.56271,-1.77301 13.19984,-4.64616 18.99205,-6.31775 1.76,-0.50792 3.90479,-1.15076 4.7662,-1.42854 0.86141,-0.27777 1.88767,-0.56334 2.28059,-0.63459 0.39291,-0.0712 2.97863,-0.70552 5.74603,-1.40949 5.79193,-1.47335 20.3796,-4.43069 24.64718,-4.99668 0.704,-0.0934 2.648,-0.38012 4.32,-0.63723 2.93182,-0.45082 3.79413,-0.57171 6.56,-0.91968 3.89979,-0.49062 5.54977,-0.63495 10.72,-0.93769 2.024,-0.11852 3.968,-0.30344 4.32,-0.41095 0.352,-0.10751 1.792,-0.2315 3.2,-0.27554 1.408,-0.044 4.648,-0.16387 7.2,-0.26629 8.83684,-0.35467 19.98531,-0.18143 28,0.4351 2.112,0.16246 5.064,0.37536 6.56,0.47311 1.496,0.0978 4.448,0.38686 6.56,0.64248 2.112,0.25561 4.128,0.46214 4.48,0.45896 2.33274,-0.0211 20.43659,3.13171 28.64,4.98765 2.024,0.45791 4.616,1.0416 5.76,1.29708 1.144,0.25548 2.296,0.55268 2.56,0.66043 0.264,0.10776 1.56,0.48044 2.88,0.82818 4.5347,1.19461 5.60516,1.49095 7.84,2.17036 1.232,0.37455 2.744,0.81318 3.36,0.97474 0.616,0.16156 3.208,1.03329 5.75999,1.93717 2.552,0.90388 4.928,1.71248 5.28,1.7969 0.352,0.0844 0.928,0.27061 1.28,0.41376 0.352,0.14314 1.3867,0.56312 2.29933,0.93329 0.91262,0.37016 1.83062,0.67302 2.03998,0.67302 0.20937,0 1.26267,0.37608 2.34068,0.83573 1.07801,0.45965 2.24801,0.95068 2.60001,1.09118 0.352,0.1405 1.288,0.54476 2.08,0.89835 0.792,0.35359 2.88,1.24549 4.64,1.982 1.76,0.73652 3.704,1.59355 4.32,1.90452 0.616,0.31097 3.54228,1.70004 6.50285,3.08681 7.48748,3.50726 11.36017,5.5217 18.42489,9.58397 0.63375,0.36441 1.94426,1.09235 2.91226,1.61764 0.968,0.52529 2.336,1.32556 3.04,1.77837 0.704,0.45281 3.296,2.08637 5.76,3.63013 4.37076,2.73839 5.39486,3.40997 10.2341,6.71131 5.32902,3.63546 14.56851,10.7052 21.4459,16.40964 1.76,1.45983 3.67211,3.04487 4.24913,3.5223 0.57701,0.47743 1.51301,1.35508 2.08,1.95033 0.56698,0.59525 1.40409,1.31525 1.86024,1.6 0.45616,0.28475 1.44502,1.23773 2.19749,2.11773 0.75246,0.88 1.67524,1.74745 2.05062,1.92766 0.93905,0.45082 12.28244,11.87591 12.51337,12.60349 0.10244,0.32278 0.97942,1.21731 1.94885,1.98786 0.96942,0.77054 1.83845,1.68899 1.93118,2.04099 0.0927,0.352 0.65452,1 1.24843,1.44 0.59391,0.44 1.22541,1.11406 1.40334,1.4979 0.17792,0.38385 0.76311,1.02293 1.30042,1.42018 0.53731,0.39725 0.97693,0.85923 0.97693,1.02661 0,0.16738 0.76176,1.1843 1.69281,2.25982 3.03976,3.51145 7.3821,8.92187 10.1732,12.67549 6.56482,8.8287 5.76387,7.71103 9.34197,13.03601 1.54438,2.29838 3.02038,4.35515 3.28,4.57061 0.25961,0.21546 0.47202,0.58734 0.47202,0.82639 0,0.23905 0.69627,1.48142 1.54726,2.76082 0.85099,1.27939 1.64208,2.54217 1.75796,2.80617 0.11589,0.264 0.39162,0.76255 0.61274,1.10788 0.94772,1.48008 2.0269,3.33084 2.89927,4.97212 0.51451,0.968 1.10727,1.976 1.31724,2.24 0.20998,0.264 0.55647,0.84 0.76998,1.28 0.21352,0.44 0.86438,1.664 1.44637,2.72 1.35211,2.45336 7.78412,15.29884 9.13317,18.24 0.56509,1.232 1.22786,2.672 1.47283,3.2 1.7012,3.66675 2.40318,5.29609 2.40318,5.57791 0,0.17853 0.34387,1.08454 0.76416,2.01335 0.42029,0.92881 1.15941,2.69674 1.6425,3.92874 0.48308,1.232 1.07521,2.69377 1.31584,3.24837 0.24062,0.55459 0.4375,1.16855 0.4375,1.36434 0,0.19579 0.14922,0.60602 0.33159,0.91164 0.3091,0.51797 0.86426,2.10045 3.00147,8.55565 1.20379,3.63589 2.60269,8.07568 3.07522,9.76 0.2222,0.792 0.58453,2.01601 0.80518,2.72001 0.58962,1.88116 2.81268,10.64004 3.77665,14.88 3.17527,13.96627 5.43255,29.22027 6.60579,44.64 0.44125,5.79914 0.5321,9.27028 0.54027,20.64 0.009,12.5156 -0.29085,20.38927 -1.05404,27.68 -0.0921,0.88 -0.24069,2.392 -0.33015,3.36 -0.0895,0.968 -0.22876,2.336 -0.30954,3.04 -0.0808,0.704 -0.2093,1.856 -0.2856,2.56 -0.0763,0.704 -0.29446,2.216 -0.4848,3.36 -1.01154,6.07976 -1.95043,12.15829 -2.06313,13.35713 -0.0702,0.74642 -0.21027,1.49091 -0.31133,1.65442 -0.10105,0.16351 -0.61477,2.48951 -1.1416,5.16889 -0.52682,2.67937 -1.09453,5.39088 -1.26158,6.02557 -0.16704,0.6347 -0.60996,2.44999 -0.98426,4.03399 -1.80599,7.64272 -4.08417,15.52 -4.48853,15.52 -0.13709,0 -0.44104,0.061 -0.67544,0.13564 -0.23439,0.0746 -0.88782,-0.0334 -1.45207,-0.24 z M 323.37392,457.69162 c -0.51482,-0.51482 -0.53544,-6.51477 -0.34826,-101.33778 0.15955,-80.82783 0.27926,-100.84153 0.60436,-101.04789 0.22297,-0.14153 5.38708,-0.25953 11.4758,-0.26222 10.15645,-0.005 11.10877,0.0413 11.53509,0.5551 0.58048,0.69955 0.83584,1.35935 5.41833,14 1.08466,2.992 2.32742,6.376 2.76168,7.52 0.85462,2.25137 1.6921,4.58872 2.63711,7.36 0.33009,0.968 1.64084,4.568 2.91277,8 1.27194,3.432 2.57103,6.96 2.88687,7.84 0.31585,0.88 1.10621,3.04 1.75637,4.8 1.37554,3.72364 3.22175,8.78107 5.02307,13.76 1.96801,5.43965 2.37462,6.55064 3.27929,8.96 0.4626,1.232 1.03438,2.816 1.27062,3.52 0.45411,1.35323 2.44168,6.80536 3.84963,10.56 1.39001,3.70677 1.76848,4.74026 2.22658,6.08 0.24072,0.704 1.04438,2.936 1.78591,4.96 0.74154,2.024 1.60383,4.4 1.91621,5.28 2.17922,6.13911 3.26379,8.99799 3.50618,9.24211 0.31989,0.32218 1.01671,-1.15271 2.0987,-4.44211 0.40524,-1.232 1.33871,-3.896 2.07438,-5.92 0.73567,-2.024 1.81735,-5.12 2.40375,-6.88 0.58639,-1.76 2.0273,-5.864 3.20202,-9.12 1.17472,-3.256 3.14097,-8.8 4.36945,-12.32 1.22848,-3.52 2.63711,-7.552 3.1303,-8.96 0.49318,-1.408 1.42416,-4.072 2.06885,-5.92 2.26318,-6.48745 2.98347,-8.53955 5.44749,-15.52 1.36678,-3.872 2.87677,-8.192 3.35554,-9.6 0.47877,-1.408 1.75764,-5.044 2.84195,-8.08 1.0843,-3.036 2.83766,-8.004 3.89636,-11.04 1.0587,-3.036 2.05305,-5.808 2.20967,-6.16 0.15661,-0.352 0.81119,-2.224 1.4546,-4.16 0.64342,-1.936 1.40459,-3.7 1.6915,-3.92 0.39336,-0.30163 3.12333,-0.39893 11.10049,-0.39563 5.81836,0.002 10.90284,0.0912 11.29884,0.19732 l 0.72,0.19295 v 21.4884 21.48839 l -0.74671,1.11429 c -0.41068,0.61285 -1.22953,2.19428 -1.81967,3.51428 -0.59013,1.32 -1.2621,2.62732 -1.49327,2.90516 -0.23116,0.27784 -1.2272,2.07784 -2.21341,4 -0.98622,1.92216 -2.67823,5.20026 -3.76003,7.28466 -1.0818,2.0844 -2.43498,4.7124 -3.00706,5.84 -0.57208,1.1276 -1.18408,2.05018 -1.36,2.05018 -0.21035,0 -0.31985,-8.38092 -0.31985,-24.48 0,-14.41338 -0.11922,-24.48 -0.28992,-24.48 -0.32538,0 -0.3745,0.13238 -3.91836,10.56 -1.40563,4.136 -3.3201,9.752 -4.25437,12.48 -4.4795,13.07969 -6.63091,19.42215 -8.03244,23.68 -0.84002,2.552 -1.63488,4.928 -1.76635,5.28 -0.13147,0.352 -0.48585,1.288 -0.7875,2.08 -0.30165,0.792 -1.60999,4.608 -2.90742,8.48 -1.29743,3.872 -3.2776,9.704 -4.40038,12.96 -2.19046,6.35222 -9.82516,28.63788 -12.33301,36 l -1.52608,4.48 -8.15101,0.0853 -8.15102,0.0853 -0.69529,-1.68528 c -0.38241,-0.9269 -0.9029,-2.33328 -1.15665,-3.12528 -0.25374,-0.792 -0.99768,-2.88 -1.6532,-4.64 -1.4433,-3.87513 -2.96089,-8.03195 -3.32956,-9.12 -0.14909,-0.44 -0.94813,-2.672 -1.77564,-4.96 -0.82751,-2.288 -2.12758,-5.888 -2.88905,-8 -0.76147,-2.112 -1.76586,-4.848 -2.23197,-6.08 -0.46611,-1.232 -1.61556,-4.4 -2.55434,-7.04 -3.81147,-10.71852 -4.65955,-13.07124 -5.39702,-14.97223 -0.42412,-1.09327 -0.99262,-2.63577 -1.26334,-3.42777 -0.27073,-0.792 -0.87156,-2.448 -1.33519,-3.68 -0.46362,-1.232 -1.04088,-2.816 -1.28279,-3.52 -0.2419,-0.704 -1.04288,-2.936 -1.77995,-4.96 -0.73707,-2.024 -1.59161,-4.4 -1.89899,-5.28 -1.35576,-3.88143 -5.80927,-16.05982 -6.08507,-16.64 -0.16733,-0.352 -0.79845,-2.08 -1.40248,-3.84 -2.15002,-6.26465 -3.61311,-10.25355 -4.10427,-11.18971 -0.4952,-0.94385 -0.4996,-0.93299 -0.71252,1.76 -0.11783,1.49034 -0.13537,10.41371 -0.039,19.82971 0.0964,9.416 0.23584,28.712 0.30988,42.88 0.074,14.168 0.21577,37.424 0.31495,51.68 0.20565,29.56153 0.19808,61.32475 -0.0147,61.68001 -0.0791,0.132 -3.50896,0.24 -7.622,0.24 -6.62893,0 -7.5404,-0.0621 -8.02547,-0.54722 z m 113.35483,0.33388 c -0.11733,-0.11733 -0.21333,-21.76898 -0.21333,-48.11478 v -47.90145 l 2.41278,-4.28522 c 1.32702,-2.35687 2.54599,-4.50122 2.7088,-4.76522 0.4048,-0.65638 4.24996,-7.61597 5.83438,-10.56 0.71039,-1.32 1.40206,-2.544 1.53703,-2.72 0.23048,-0.30054 1.41133,-2.41989 2.45157,-4.4 0.25427,-0.484 0.59503,-0.88 0.75725,-0.88 0.36643,0 0.56765,122.72994 0.20228,123.38276 -0.21061,0.37634 -1.60261,0.45725 -7.86666,0.45725 -4.18592,0 -7.70677,-0.096 -7.8241,-0.21334 z M 293.87542,435.30691 c -0.62554,-0.25241 -0.58387,-151.32905 0.0418,-151.56914 0.24299,-0.0933 5.17499,-0.10918 10.96,-0.0354 5.78501,0.0738 10.61349,0.13465 10.72996,0.1353 0.11647,6.5e-4 1.52047,2.42564 3.12,5.38886 l 2.90824,5.38769 v 15.41232 c 0,8.47677 -0.10936,15.41231 -0.24303,15.41231 -0.30252,0 -0.66744,-0.58218 -2.34185,-3.73609 -4.77989,-9.00338 -8.3903,-15.46391 -8.64188,-15.46391 -0.17668,0 -0.29324,25.61595 -0.29324,64.44577 0,58.47091 -0.0469,64.46377 -0.50617,64.64 -0.60324,0.23148 -15.15686,0.21512 -15.73383,-0.0177 z m 173.42174,-0.006 c -0.34257,-0.13718 -0.41147,-11.75786 -0.38073,-64.21474 0.0433,-73.91465 0.076,-66.44725 -0.29085,-66.44725 -0.15941,0 -0.73603,0.9 -1.28137,2 -0.54533,1.1 -1.41037,2.72 -1.92229,3.6 -0.51193,0.88 -1.13861,2.032 -1.39264,2.56 -0.25402,0.528 -1.15516,2.184 -2.00251,3.68 -0.84736,1.496 -2.01957,3.656 -2.60491,4.8 -0.58534,1.144 -1.20161,2.296 -1.36948,2.56 -0.16786,0.264 -1.50035,2.69853 -2.96109,5.41007 -1.46073,2.71154 -3.14045,5.80754 -3.7327,6.88 -0.59225,1.07246 -1.49188,2.74193 -1.99917,3.70993 -2.06397,3.93844 -5.30932,9.95261 -6.32401,11.71944 -0.59401,1.03431 -1.49404,2.67256 -2.00008,3.64056 -0.50604,0.968 -1.54129,2.912 -2.30056,4.32 -0.75927,1.408 -3.51459,6.52 -6.12294,11.36 -2.60836,4.84 -4.86527,8.95655 -5.01537,9.14789 -0.1501,0.19134 -0.82807,1.41534 -1.50659,2.72 -0.67852,1.30466 -3.10662,5.82811 -5.39577,10.05211 -2.28915,4.224 -7.55585,13.94401 -11.70377,21.60001 -10.12495,18.68804 -10.32663,19.04472 -10.74784,19.008 -0.20189,-0.0176 -4.02871,-0.0536 -8.50404,-0.08 l -8.13696,-0.048 -1.98399,-3.6 c -1.0912,-1.98 -2.55846,-4.68 -3.26058,-6 -3.99061,-7.50239 -11.11174,-20.74051 -12.56595,-23.36001 -0.92821,-1.672 -4.12967,-7.576 -7.11436,-13.12 -2.98469,-5.544 -5.97089,-11.088 -6.63601,-12.32 -0.66512,-1.232 -2.68951,-4.98346 -4.49865,-8.33659 -1.80915,-3.35313 -3.31928,-6.30513 -3.35586,-6.56 -0.2283,-1.59089 0.0592,-30.38341 0.30341,-30.38341 0.16175,0 0.97521,1.26 1.80769,2.8 0.83248,1.54 1.94139,3.592 2.46423,4.56 0.52285,0.968 1.34649,2.48 1.83031,3.36 0.48382,0.88 1.38361,2.536 1.99953,3.68 2.23945,4.15951 5.85105,10.83745 8.65321,16 1.57626,2.904 3.08848,5.712 3.3605,6.24 0.27202,0.528 1.78566,3.336 3.36364,6.24 1.57798,2.904 3.33082,6.144 3.89521,7.2 0.56438,1.056 4.60389,8.544 8.97669,16.64 4.37279,8.09601 8.60851,15.97765 9.41272,17.51477 0.8042,1.53712 1.6285,2.79712 1.83178,2.8 0.41067,0.006 1.18751,-1.25171 3.55502,-5.75476 0.87906,-1.672 2.35184,-4.408 3.27283,-6.08 0.92099,-1.67201 3.15141,-5.77601 4.95648,-9.12001 1.80508,-3.344 3.79107,-7.016 4.41333,-8.16 0.62226,-1.144 4.18202,-7.696 7.91057,-14.56 12.13833,-22.34582 14.42968,-26.55273 14.72769,-27.04 0.16146,-0.264 1.28831,-2.352 2.5041,-4.64 3.34988,-6.30412 4.25541,-7.96969 4.52337,-8.32 0.13463,-0.176 1.21619,-2.192 2.40345,-4.48 1.18727,-2.288 2.27042,-4.304 2.40701,-4.48 0.13659,-0.176 1.07293,-1.904 2.08077,-3.84 1.00783,-1.936 1.99351,-3.72012 2.1904,-3.96471 0.19688,-0.2446 0.73209,-1.1806 1.18935,-2.08 1.17544,-2.31207 2.69351,-5.15659 3.94673,-7.39529 1.15334,-2.06031 2.00374,-3.64562 4.60554,-8.58568 0.91121,-1.73012 1.92669,-3.53012 2.25662,-4 0.32992,-0.46987 0.90914,-1.50232 1.28714,-2.29432 0.37801,-0.792 1.25464,-2.448 1.94807,-3.68 0.69343,-1.232 1.48572,-2.708 1.76065,-3.28 l 0.49987,-1.04 h 11.51571 11.5157 v 75.64577 c 0,68.68385 -0.0466,75.66364 -0.50617,75.84 -0.6129,0.23519 -15.16021,0.21323 -15.75208,-0.0238 z"
       id="path5" />
  </g>
</svg>
