<svg id="Layer_1" height="512" viewBox="0 0 64 64" width="512" xmlns="http://www.w3.org/2000/svg"><g fill="rgb(0,0,0)"><path d="m54.069 53.87-3.657-32.031c-.366-3.237-3.097-5.678-6.351-5.678h-1.183v-2.288c0-5.991-4.887-10.865-10.893-10.865-5.991 0-10.865 4.874-10.865 10.865v2.288h-1.183c-3.253 0-5.983 2.441-6.351 5.677l-3.656 32.038c-.2 1.868.345 3.593 1.593 5.01 1.277 1.378 2.923 2.106 4.759 2.106h31.437c1.836 0 3.48-.728 4.774-2.125 1.231-1.398 1.777-3.124 1.576-4.997zm-30.948-39.997c0-4.888 3.977-8.865 8.865-8.865 4.903 0 8.893 3.977 8.893 8.865v2.288h-17.758zm27.889 43.654c-.901.972-2.009 1.465-3.291 1.465h-31.437c-1.283 0-2.391-.493-3.275-1.447-.862-.979-1.229-2.142-1.089-3.449l3.656-32.032c.253-2.225 2.13-3.903 4.364-3.903h1.183v5.492c0 .552.447 1 1 1s1-.448 1-1v-5.492h17.758v5.492c0 .552.447 1 1 1s1-.448 1-1v-5.492h1.183c2.235 0 4.111 1.678 4.364 3.904l3.656 32.025c.14 1.312-.226 2.475-1.072 3.437z"/><path d="m37.174 38.923h-4.188v-4.159c0-.552-.447-1-1-1s-1 .448-1 1v4.159h-4.159c-.553 0-1 .448-1 1s.447 1 1 1h4.159v4.188c0 .552.447 1 1 1s1-.448 1-1v-4.188h4.188c.553 0 1-.448 1-1s-.448-1-1-1z"/></g></svg>