<svg id="Layer_1" enable-background="new 0 0 32 32" viewBox="0 0 32 32" xmlns="http://www.w3.org/2000/svg"><path d="m15 11v-2c0-.5527344.4477539-1 1-1s1 .4472656 1 1v2c0 .5527344-.4477539 1-1 1s-1-.4472656-1-1zm-4.2207031 1.3964844c.1953125.2695313.5004883.4121094.8095703.4121094.2036133 0 .409668-.0625.5869141-.1914063.4467773-.3242188.5458984-.9501953.2207031-1.3964844l-1.1757813-1.6171875c-.324707-.4472656-.9511719-.5458984-1.3964844-.2207031-.4467773.3242188-.5458984.9501953-.2207031 1.3964844zm9.6318359.4121094c.309082 0 .6142578-.1425781.8095703-.4121094l1.1757813-1.6171875c.3251953-.4462891.2260742-1.0722656-.2207031-1.3964844-.4462891-.3242188-1.0717773-.2255859-1.3964844.2207031l-1.1757813 1.6171875c-.3251953.4462891-.2260742 1.0722656.2207031 1.3964844.1772461.1289063.3833008.1914063.5869141.1914063zm8.7006836 10.0566406c-.1582031.0917969-.3305664.1347656-.5004883.1347656-.3452148 0-.6806641-.1787109-.8662109-.4990234-1.6889648-2.9150391-4.3842163-5.0582886-7.4910278-6.0936279.4640502.7584228.7459106 1.6403198.7459106 2.5926513 0 2.7568359-2.2431641 5-5 5s-5-2.2431641-5-5c0-.9523315.2818604-1.8342285.7459106-2.5926514-3.1068115 1.0353394-5.802063 3.1785889-7.4910278 6.0936279-.2768555.4785156-.8867188.6425781-1.3666992.3642578-.4775391-.2763672-.640625-.8886719-.3637695-1.3662109 2.7822265-4.8037109 7.9458007-7.7871093 13.4755859-7.7871093s10.6933594 2.9833984 13.4755859 7.7871094c.2768555.477539.1137696 1.0898437-.3637695 1.3662109zm-10.1118164-3.8652344c0-1.6542969-1.3457031-3-3-3s-3 1.3457031-3 3 1.3457031 3 3 3 3-1.3457031 3-3z"/></svg>