<svg height="512" viewBox="0 0 60 60" width="512" xmlns="http://www.w3.org/2000/svg"><g id="Icons"><path d="m1.9 21.053 2.665 1.906a2.558 2.558 0 0 1 1.055 2.119l-.04 3.322a4.51 4.51 0 0 0 2.488 4.123 4.409 4.409 0 0 0 4.686-.432l2.626-1.991a2.482 2.482 0 0 1 2.284-.365l3.1 1.072a4.443 4.443 0 0 0 4.59-1.07 4.535 4.535 0 0 0 1.1-4.683l-.184-.551 29.15-1.566a5.009 5.009 0 0 0 4.565-4.847 5 5 0 0 0 -4.6-4.769l-27.373-1.392a4.407 4.407 0 0 0 -3.876-2.27h-.058l-3.278.041h-.022a2.47 2.47 0 0 1 -2.04-1.074l-1.887-2.7a4.469 4.469 0 0 0 -7.957 1.274l-.97 3.17a2.527 2.527 0 0 1 -1.643 1.669l-3.132.98a4.492 4.492 0 0 0 -3.092 3.6 4.539 4.539 0 0 0 1.843 4.434zm46.56-4.053h-20.918l.187-.25a4.5 4.5 0 0 0 .9-2.53l-.008-.258 26.633 1.354a2.979 2.979 0 0 1 2.736 2.774 2.984 2.984 0 0 1 -2.7 2.851l-29.671 1.594-.208-.624a2.431 2.431 0 0 1 -.132-.872 1.043 1.043 0 0 0 0-.125 2.225 2.225 0 0 1 .043-.547 2.414 2.414 0 0 1 .451-1l.273-.367h22.414a1 1 0 1 0 0-2zm-46.429-.064a2.473 2.473 0 0 1 1.718-2.012l3.135-.982a4.524 4.524 0 0 0 2.952-2.99l.97-3.169a2.46 2.46 0 0 1 2-1.753 2.532 2.532 0 0 1 .394-.03 2.423 2.423 0 0 1 2.01 1.074l1.89 2.692a4.494 4.494 0 0 0 3.721 1.934l3.282-.04a2.461 2.461 0 0 1 2.375 1.694 2.884 2.884 0 0 1 .144.629l.009.191a2.469 2.469 0 0 1 -.5 1.376l-1.955 2.614a4.466 4.466 0 0 0 -.818 1.824 4.279 4.279 0 0 0 -.079 1.012 4.469 4.469 0 0 0 .233 1.534l1.05 3.151a2.517 2.517 0 0 1 -.615 2.633 2.42 2.42 0 0 1 -2.531.595l-3.1-1.072a4.482 4.482 0 0 0 -4.135.659l-2.633 1.992a2.388 2.388 0 0 1 -2.576.239 2.491 2.491 0 0 1 -1.392-2.309l.04-3.316a4.562 4.562 0 0 0 -1.888-3.77l-2.669-1.909a2.52 2.52 0 0 1 -1.032-2.491z"/><path d="m15 24a5 5 0 1 0 -5-5 5.006 5.006 0 0 0 5 5zm0-8a3 3 0 1 1 -3 3 3 3 0 0 1 3-3z"/><path d="m55.42 46.962 2.671-1.911a4.541 4.541 0 0 0 1.841-4.431 4.494 4.494 0 0 0 -3.095-3.606l-3.126-.978a2.531 2.531 0 0 1 -1.648-1.67l-.969-3.172a4.468 4.468 0 0 0 -7.955-1.269l-1.9 2.707a2.462 2.462 0 0 1 -2.027 1.068h-.023l-3.279-.04h-.056a4.421 4.421 0 0 0 -3.13 1.282 4.5 4.5 0 0 0 -.733.987l-27.428 1.4a4.813 4.813 0 0 0 .031 9.615l29.12 1.556-.185.549a4.541 4.541 0 0 0 1.1 4.686 4.447 4.447 0 0 0 4.595 1.065l3.1-1.069a2.479 2.479 0 0 1 2.276.369l2.627 1.988a4.408 4.408 0 0 0 4.688.434 4.507 4.507 0 0 0 2.492-4.122l-.04-3.324a2.551 2.551 0 0 1 1.053-2.114zm-21.048-.428-29.641-1.592a2.814 2.814 0 0 1 -.031-5.625l26.683-1.357c0 .087-.026.171-.026.258v.046a4.574 4.574 0 0 0 1.079 2.723l.009.013h-21.445a1 1 0 0 0 0 2h22.91c.014 0 .025-.007.039-.008a3.053 3.053 0 0 1 .715 1.359 3.674 3.674 0 0 1 -.292 2.183zm19.88-1.2a4.554 4.554 0 0 0 -1.885 3.766l.04 3.321a2.493 2.493 0 0 1 -1.387 2.31 2.392 2.392 0 0 1 -2.579-.241l-2.633-1.99a4.491 4.491 0 0 0 -4.136-.656l-3.1 1.069a2.421 2.421 0 0 1 -2.535-.592 2.518 2.518 0 0 1 -.615-2.635l.437-1.3c.786-2.319 1.024-3.019.765-4.414-.208-1.043-.621-1.586-1.726-3.039-.245-.323-.53-.7-.865-1.145a2.659 2.659 0 0 1 -.68-1.593 2.624 2.624 0 0 1 .773-1.833 2.6 2.6 0 0 1 1.756-.7l3.283.04h.04a4.456 4.456 0 0 0 3.678-1.926l1.892-2.7a2.414 2.414 0 0 1 2.4-1.041 2.459 2.459 0 0 1 2 1.752l.969 3.17a4.529 4.529 0 0 0 2.957 2.991l3.129.98a2.472 2.472 0 0 1 1.72 2.013 2.517 2.517 0 0 1 -1.031 2.49z"/><path d="m44.987 38a5 5 0 1 0 5 5 5.006 5.006 0 0 0 -5-5zm0 8a3 3 0 1 1 3-3 3 3 0 0 1 -3 3z"/></g></svg>