<?xml version="1.0" encoding="UTF-8" standalone="no"?>
<!-- Created with Inkscape (http://www.inkscape.org/) -->

<svg
   version="1.1"
   id="svg4407"
   xml:space="preserve"
   width="682.66669"
   height="682.66669"
   viewBox="0 0 682.66669 682.66669"
   xmlns="http://www.w3.org/2000/svg"
   xmlns:svg="http://www.w3.org/2000/svg"><defs
     id="defs4411"><clipPath
       clipPathUnits="userSpaceOnUse"
       id="clipPath4421"><path
         d="M 0,512 H 512 V 0 H 0 Z"
         id="path4419" /></clipPath></defs><g
     id="g4413"
     transform="matrix(1.3333333,0,0,-1.3333333,0,682.66667)"><g
       id="g4415"><g
         id="g4417"
         clip-path="url(#clipPath4421)"><g
           id="g4423"
           transform="translate(352.3848,197)"><path
             d="m 0,0 h 39.615 c 6.627,0 12,-5.373 12,-12 v -32 c 0,-6.627 -5.373,-12 -12,-12 h -272 c -6.627,0 -12,5.373 -12,12 v 32 c 0,6.627 5.373,12 12,12 h 199.77"
             style="fill:none;stroke:#000000;stroke-width:15;stroke-linecap:round;stroke-linejoin:round;stroke-miterlimit:10;stroke-dasharray:none;stroke-opacity:1"
             id="path4425" /></g><g
           id="g4427"
           transform="translate(126.7988,112.1152)"><path
             d="m 0,0 -4.799,28.885 h 268 l -22.18,-133.5 H 17.381 L 5.293,-31.856"
             style="fill:none;stroke:#000000;stroke-width:15;stroke-linecap:round;stroke-linejoin:round;stroke-miterlimit:10;stroke-dasharray:none;stroke-opacity:1"
             id="path4429" /></g><g
           id="g4431"
           transform="translate(303.832,452.9561)"><path
             d="m 0,0 c 0,-24.853 14.755,-38.456 32.955,-38.456 18.201,0 32.956,13.603 32.956,38.456 0,24.853 -23.827,51.544 -32.956,51.544 C 23.827,51.544 0,24.853 0,0 Z"
             style="fill:none;stroke:#000000;stroke-width:15;stroke-linecap:round;stroke-linejoin:round;stroke-miterlimit:10;stroke-dasharray:none;stroke-opacity:1"
             id="path4433" /></g><g
           id="g4435"
           transform="translate(215.5322,435.6396)"><path
             d="m 0,0 c -11.783,-3.613 -20.986,-9.421 -22.463,-13.822 -2.907,-8.666 14.774,-39.782 38.301,-47.697 23.526,-7.913 41.102,1.761 46.898,19.038 5.796,17.276 -2.383,35.614 -25.911,43.527 -1.57,0.528 -3.181,0.959 -4.823,1.299"
             style="fill:none;stroke:#000000;stroke-width:15;stroke-linecap:round;stroke-linejoin:round;stroke-miterlimit:10;stroke-dasharray:none;stroke-opacity:1"
             id="path4437" /></g><g
           id="g4439"
           transform="translate(153.1953,290.7529)"><path
             d="M 0,0 C 23.982,6.396 33.313,24.174 28.628,41.785 23.944,59.396 7.02,70.173 -16.964,63.776 -40.947,57.38 -60.571,27.455 -58.222,18.622 -55.873,9.789 -23.983,-6.396 0,0 Z"
             style="fill:none;stroke:#000000;stroke-width:15;stroke-linecap:round;stroke-linejoin:round;stroke-miterlimit:10;stroke-dasharray:none;stroke-opacity:1"
             id="path4441" /></g><g
           id="g4443"
           transform="translate(299.7012,284.2627)"><path
             d="M 0,0 C -17.527,17.596 -37.567,16.792 -50.454,3.921 -63.34,-8.95 -64.191,-29.016 -46.663,-46.61 -29.136,-64.206 6.558,-66.253 13.021,-59.798 19.483,-53.342 17.528,-17.596 0,0 Z"
             style="fill:none;stroke:#000000;stroke-width:15;stroke-linecap:round;stroke-linejoin:round;stroke-miterlimit:10;stroke-dasharray:none;stroke-opacity:1"
             id="path4445" /></g><g
           id="g4447"
           transform="translate(399.333,356.5049)"><path
             d="M 0,0 C -17.923,17.191 -37.939,15.933 -50.53,2.771 -63.12,-10.39 -63.517,-30.47 -45.594,-47.661 -27.671,-64.854 8.06,-66.087 14.375,-59.486 20.689,-52.885 17.923,-17.192 0,0 Z"
             style="fill:none;stroke:#000000;stroke-width:15;stroke-linecap:round;stroke-linejoin:round;stroke-miterlimit:10;stroke-dasharray:none;stroke-opacity:1"
             id="path4449" /></g><g
           id="g4451"
           transform="translate(218.9102,197)"><path
             d="m 0,0 c 0,0 -77.638,95.444 34.799,124.77 106.93,27.888 83.09,134.203 83.09,134.203"
             style="fill:none;stroke:#000000;stroke-width:15;stroke-linecap:round;stroke-linejoin:round;stroke-miterlimit:10;stroke-dasharray:none;stroke-opacity:1"
             id="path4453" /></g><g
           id="g4455"
           transform="translate(241.1104,405.168)"><path
             d="M 0,0 C 0,0 77.672,-9.116 58.732,-62.026"
             style="fill:none;stroke:#000000;stroke-width:15;stroke-linecap:round;stroke-linejoin:round;stroke-miterlimit:10;stroke-dasharray:none;stroke-opacity:1"
             id="path4457" /></g><g
           id="g4459"
           transform="translate(282.3896,332.3311)"><path
             d="M 0,0 C 0,0 68.244,45.052 95.884,2.22"
             style="fill:none;stroke:#000000;stroke-width:15;stroke-linecap:round;stroke-linejoin:round;stroke-miterlimit:10;stroke-dasharray:none;stroke-opacity:1"
             id="path4461" /></g><g
           id="g4463"
           transform="translate(143.5488,321.4619)"><path
             d="M 0,0 C 0,0 92.503,50.765 87.812,-7.336"
             style="fill:none;stroke:#000000;stroke-width:15;stroke-linecap:round;stroke-linejoin:round;stroke-miterlimit:10;stroke-dasharray:none;stroke-opacity:1"
             id="path4465" /></g><g
           id="g4467"
           transform="translate(192.8115,259.3916)"><path
             d="M 0,0 C 0,0 30.847,58.788 90.632,2.378"
             style="fill:none;stroke:#000000;stroke-width:15;stroke-linecap:round;stroke-linejoin:round;stroke-miterlimit:10;stroke-dasharray:none;stroke-opacity:1"
             id="path4469" /></g></g></g></g></svg>
