<?xml version="1.0" encoding="UTF-8" standalone="no"?>
<!-- Generator: Adobe Illustrator 19.0.0, SVG Export Plug-In . SVG Version: 6.00 Build 0)  -->

<svg
   version="1.1"
   id="Capa_1"
   x="0px"
   y="0px"
   viewBox="0 0 900.78377 876.66805"
   xml:space="preserve"
   width="900.78375"
   height="876.66803"
   xmlns="http://www.w3.org/2000/svg"
   xmlns:svg="http://www.w3.org/2000/svg"><defs
   id="defs20" />
<g
   id="g5"
   transform="matrix(-2,0,0,2,900.78378,-12.056)">
	<g
   id="g4">
		<g
   id="g3">
			<path
   d="m 143.673,350.322 c -25.969,0 -47.02,21.052 -47.02,47.02 0,25.969 21.052,47.02 47.02,47.02 25.969,0 47.02,-21.052 47.02,-47.02 10e-4,-25.968 -21.051,-47.02 -47.02,-47.02 z m 0,73.143 c -14.427,0 -26.122,-11.695 -26.122,-26.122 0,-14.427 11.695,-26.122 26.122,-26.122 14.427,0 26.122,11.695 26.122,26.122 0.001,14.427 -11.695,26.122 -26.122,26.122 z"
   id="path1" />
			<path
   d="m 342.204,350.322 c -25.969,0 -47.02,21.052 -47.02,47.02 0,25.969 21.052,47.02 47.02,47.02 25.968,0 47.02,-21.052 47.02,-47.02 0,-25.968 -21.051,-47.02 -47.02,-47.02 z m 0,73.143 c -14.427,0 -26.122,-11.695 -26.122,-26.122 0,-14.427 11.695,-26.122 26.122,-26.122 14.427,0 26.122,11.695 26.122,26.122 10e-4,14.427 -11.695,26.122 -26.122,26.122 z"
   id="path2" />
			<path
   d="m 448.261,76.037 c -2.176,-2.377 -5.153,-3.865 -8.359,-4.18 L 99.788,67.155 90.384,38.42 C 83.759,19.211 65.771,6.243 45.453,6.028 H 10.449 C 4.678,6.028 0,10.706 0,16.477 0,22.248 4.678,26.926 10.449,26.926 h 35.004 c 11.361,0.251 21.365,7.546 25.078,18.286 l 66.351,200.098 -5.224,12.016 c -5.827,15.026 -4.077,31.938 4.702,45.453 8.695,13.274 23.323,21.466 39.184,21.943 h 203.233 c 5.771,0 10.449,-4.678 10.449,-10.449 0,-5.771 -4.678,-10.449 -10.449,-10.449 H 175.543 c -8.957,-0.224 -17.202,-4.936 -21.943,-12.539 -4.688,-7.51 -5.651,-16.762 -2.612,-25.078 l 4.18,-9.404 219.951,-22.988 c 24.16,-2.661 44.034,-20.233 49.633,-43.886 L 449.83,84.917 c 1.13,-3.024 0.53,-6.425 -1.569,-8.88 z m -43.885,109.191 c -3.392,15.226 -16.319,26.457 -31.869,27.69 L 155.168,235.383 106.58,88.053 426.841,92.755 Z"
   id="path3" />
		</g>
	</g>
</g>















</svg>
