<svg enable-background="new 0 0 512 512" height="512" viewBox="0 0 512 512" width="512" xmlns="http://www.w3.org/2000/svg"><g id="_x32_2_Red_Rose"><g><path d="m380.773 345.835c-2.041-.39-50.475-9.136-81.787 16.549-27.969 22.945-31.613 64.626-32.087 74.683-2.564 2.365-9.214 7.494-19.266 8.412 14.54-50.346 19.412-110.371 12.377-167.897 18.467-2.19 36.088-11.93 47.164-28.11 24.134-35.253 35.696-85.379 39.548-105.296 1.764-9.089 8.354-12.048 10.176-13.877 19.747-15.997 18.667-35.67 18.378-38.555-1.187-21.583-16.336-34.654-41.568-35.867-6.132-.297-11.807-3.561-15.185-8.725-7.962-12.164-18.983-20.857-62.953-46.232-2.68-1.641-6.173-.638-7.564 2.155-3.451 6.903-25.492 23.821-59.574 24.717-35.497.934-51.283 22.185-46.857 53.655.63 4.503-.583 9.204-3.321 12.895-17.913 24.123-10.739 43.53-4.867 52.947 9.145 14.717 24.716 10.023 29.345 25.675 8.622 29.07 26.31 102.571 86.595 104.999 2.737 21.761 6.339 67.531-2.069 120.184-8.603-1.663-13.84-6.728-15.922-9.16.734-9.358 2-45.409-19.457-68.274-24.332-25.924-67.414-23.821-69.215-23.712-2.582.141-4.685 2.119-4.997 4.68-.219 1.812-5.081 44.686 19.251 70.616 20.474 21.812 54.296 23.722 65.524 23.722.324 0 .594-.004.879-.007 3.233 3.698 10.556 10.466 22.102 12.641-5.821 30.972-15.932 63.859-32.898 95.358-1.395 2.592-.422 5.825 2.166 7.226 2.611 1.398 5.837.408 7.226-2.166 9.348-17.357 16.66-35.119 22.382-52.767.111.001.23.017.341.017 14.939 0 25.095-7.452 29.318-11.26 26.576 3.851 58.264.078 78.976-16.914 31.323-25.695 32.166-74.941 32.187-77.024.024-2.581-1.808-4.809-4.348-5.288zm-232.842-38.215c11.14.245 39.558 2.686 56.17 20.391 16.591 17.673 17.215 46.185 16.752 57.315-11.13-.219-39.527-2.603-56.159-20.328-16.617-17.7-17.231-46.238-16.763-57.378zm150.446-64.171c-8.127 11.867-20.833 19.572-34.495 22.463-35.767-60.508 8.735-100.94 73.486-127.559-3.379 10.097-11.739 65.29-38.991 105.096zm-44.103-230.811c37.623 21.748 48.298 29.607 55.326 40.354 5.246 8.022 13.841 13.089 23.417 13.527 20.13.92 30.767 9.638 31.618 25.917h.005c.005.109.01.224.026.333 1.182 11.055-4.465 25.087-25.979 33.553 4.385-21.802-7.742-48.964-34.557-53.634-6.242-23.502-25.825-42.906-49.866-48.921-3.686-.91-7.304-1.436-10.877-1.779 4.57-3.07 8.273-6.275 10.887-9.35zm-20.344 120.351c-23.639-12.964-24.579-46.31-2.54-56.8 19.011-9.365 38.632 7.403 33.447 24.8-4.125 13.823-20.017 16.423-26.752 7.449-4.591-5.966-2.582-11.536.833-14.758 3.217-3.051 8.371-4.493 12.608-.823 2.228 1.916 5.591 1.681 7.522-.547 1.926-2.228 1.681-5.596-.547-7.522-8.808-7.606-20.198-5.185-26.903 1.14-6.773 6.398-10.276 18.204-2.004 28.954 12.09 16.128 38.927 11.092 45.456-10.849 7.854-26.313-21.007-50.876-48.304-37.445-23.424 11.151-28.143 40.976-13.774 61.62-67.502-36.68-19.177-108.308 38.725-94.097 21.042 5.268 38.678 23.525 42.879 44.405 4.951 24.748-6.97 43.025-19.777 51.88-13.175 9.1-28.735 10.167-40.869 2.593zm-42.727-94.665c-22.285 19.063-28.155 47.443-14.444 70.951-7.713-5.689-15.967-12.326-25.049-19.772 3.068-14.815-12.579-48.632 39.493-51.179zm-48.769 103.327c-5.419-8.694-9.058-22.858 4.378-40.953.224-.302.365-.651.576-.961 32.535 26.542 55.343 42.657 82.574 43.198 16.349 9.384 35.569 6.828 50.897-3.767 14.223-9.832 27.514-29.137 25.23-55.076 22.875 6.754 27.893 39.604 18.597 48.083-20.714 9.205-46.506 23.33-64.069 43.249-32.597-20.064-74.382-26.427-98.848-21.165-7.473-5.34-14.852-5.402-19.335-12.608zm27.821 22.006c22.265-2.482 56.6 3.889 83.725 20.188-18.644 26.58-17.027 55.064-1.64 83.363-60.853.613-73.736-88.906-82.085-103.551zm175.92 256.245c-22.234 18.23-56.164 16.315-68.429 14.883 1.015-12.291 5.784-45.93 27.996-64.155 22.26-18.256 56.201-16.377 68.45-14.961-1.004 12.3-5.762 45.976-28.017 64.233z"/></g></g></svg>